<svg xmlns="http://www.w3.org/2000/svg" width="22" height="22" version="1.1">
 <circle style="opacity:0.2" cx="11" cy="11.5" r="10"/>
 <circle style="fill:#4f4f4f" cx="11" cy="11" r="10"/>
 <path style="opacity:0.2" d="M 8.5878906,8.5 7.5,14.5 h 1 3.472656 H 12 12.300781 l 2.628907,-6 h -1 L 12,12.904297 V 10.910156 A 1.5,1.5 0 0 1 11.5,11 1.5,1.5 0 0 1 11,10.910156 V 13.5 H 8.6816406 l 0.9062504,-5 z"/>
 <path style="opacity:0.2" d="m 11,5.5 a 6,6 0 0 0 -6,6 6,6 0 0 0 6,6 6,6 0 0 0 6,-6 6,6 0 0 0 -6,-6 z m 0,0.9230769 A 5.0769231,5.0769231 0 0 1 16.076923,11.5 5.0769231,5.0769231 0 0 1 11,16.576923 5.0769231,5.0769231 0 0 1 5.9230769,11.5 5.0769231,5.0769231 0 0 1 11,6.4230769 Z"/>
 <path style="fill:#ffffff" d="M 8.5884825,8 H 9.588483 L 8.5,14 h -1 z"/>
 <path style="opacity:0.1;fill:#ffffff" d="M 11,1 A 10,10 0 0 0 1,11 10,10 0 0 0 1.01075,11.291 10,10 0 0 1 11,1.5 10,10 0 0 1 20.9895,11.209 10,10 0 0 0 21,11 10,10 0 0 0 11,1 Z"/>
 <path style="fill:#ffffff" d="m 11.973536,13 v 1 H 7.5000005 L 7.8,13 Z"/>
 <path style="fill:#6f6fee" d="m 11,5 a 6,6 0 0 0 -6,6 6,6 0 0 0 6,6 6,6 0 0 0 6,-6 6,6 0 0 0 -6,-6 z m 0,0.9230769 A 5.0769231,5.0769231 0 0 1 16.076923,11 5.0769231,5.0769231 0 0 1 11,16.076923 5.0769231,5.0769231 0 0 1 5.9230769,11 5.0769231,5.0769231 0 0 1 11,5.9230769 Z"/>
 <path style="fill:#ffffff" d="M 11,10.410156 V 14 h 1 V 10.410156 A 1.5,1.5 0 0 1 11.5,10.5 1.5,1.5 0 0 1 11,10.410156 Z"/>
 <path style="fill:#ffffff" d="m 13.92895,8 h 1 L 12.3,14 h -1 z"/>
 <path style="opacity:0.2" d="M 5.0859375,7.5019531 C 4.7166486,7.5095131 4.3857845,7.5468071 4.0996094,7.6191406 3.5908542,7.7477316 3.16591,8.0014688 3.0371094,8.4960938 2.9083084,8.9907183 3.1373532,9.492266 3.4941406,9.947266 3.7722382,10.301914 4.4997487,10.832068 5.0078125,11.216797 5.0214895,10.921995 5.0566015,10.63375 5.1113281,10.351562 4.751879,10.066543 4.1825448,9.660671 4.0136719,9.445313 3.7343179,9.089062 3.6872945,8.8577481 3.7148438,8.7519531 3.7423928,8.6461586 3.8907222,8.4893549 4.2890625,8.3886719 4.6874019,8.2879889 5.2807146,8.2607121 6,8.3222656 c 1.4385712,0.123107 3.387144,0.5919496 5.46875,1.3769534 2.081606,0.785003 3.902899,1.740054 5.142578,2.626953 0.61984,0.443449 1.095646,0.872264 1.375,1.228516 0.279353,0.356249 0.326378,0.587564 0.298828,0.693359 -0.02755,0.105795 -0.175878,0.262598 -0.574218,0.363281 -0.242816,0.06137 -1.007389,0.03264 -1.585938,0.0098 -0.16587,0.271812 -0.352953,0.528429 -0.558594,0.769531 0.788474,0.05519 1.896167,0.100399 2.332032,-0.0098 0.508753,-0.128592 0.937605,-0.382329 1.066406,-0.876953 0.128801,-0.494625 -0.104151,-0.996172 -0.460938,-1.451172 C 18.147118,12.597735 17.628125,12.138305 16.970703,11.667969 15.655861,10.727283 13.793224,9.756063 11.664062,8.953125 9.534898,8.150188 7.5433721,7.6676809 6.0175781,7.5371094 5.8268541,7.5207894 5.6444818,7.5092212 5.46875,7.5039062 5.3369509,7.4999175 5.2090338,7.4994325 5.0859375,7.5019531 Z"/>
 <path style="fill:#59d4f1" d="M 5.0859375,7.0019531 C 4.7166486,7.0095131 4.3857845,7.0468071 4.0996094,7.1191406 3.5908542,7.2477316 3.16591,7.5014688 3.0371094,7.9960938 2.9083084,8.4907183 3.1373532,8.9922661 3.4941406,9.447266 3.7722382,9.801914 4.4997487,10.332068 5.0078125,10.716797 5.0214895,10.421995 5.0566015,10.13375 5.1113281,9.851562 4.751879,9.566543 4.1825448,9.160671 4.0136719,8.9453125 3.7343179,8.589062 3.6872945,8.3577481 3.7148438,8.2519531 3.7423928,8.1461586 3.8907222,7.9893549 4.2890625,7.8886719 4.6874019,7.7879889 5.2807146,7.7607121 6,7.8222656 c 1.4385712,0.123107 3.387144,0.5919496 5.46875,1.3769534 2.081606,0.785003 3.902899,1.740054 5.142578,2.626953 0.61984,0.443449 1.095646,0.872264 1.375,1.228516 0.279353,0.356249 0.326378,0.587564 0.298828,0.693359 -0.02755,0.105795 -0.175878,0.262598 -0.574218,0.363281 -0.242816,0.06137 -1.007389,0.03264 -1.585938,0.0098 -0.16587,0.271812 -0.352953,0.528429 -0.558594,0.769531 0.788474,0.05519 1.896167,0.100399 2.332032,-0.0098 0.508753,-0.128592 0.937605,-0.382329 1.066406,-0.876953 0.128801,-0.494625 -0.104151,-0.996172 -0.460938,-1.451172 C 18.147118,12.097735 17.628125,11.638305 16.970703,11.167969 15.655861,10.227283 13.793224,9.256063 11.664062,8.453125 9.534898,7.650188 7.5433721,7.1676809 6.0175781,7.0371094 5.8268541,7.0207894 5.6444818,7.0092212 5.46875,7.0039062 5.3369509,6.9999175 5.2090338,6.9994325 5.0859375,7.0019531 Z"/>
 <circle style="opacity:0.2" cx="11.5" cy="9.5" r="1"/>
 <circle style="fill:#ffffff" cx="11.5" cy="9" r="1"/>
</svg>
