<svg xmlns="http://www.w3.org/2000/svg" width="64" height="64" version="1.1">
 <circle style="opacity:0.2" cx="32" cy="33" r="28"/>
 <circle style="fill:#4f4f4f" cx="32" cy="32" r="28"/>
 <path style="opacity:0.2" d="M 25.248047,25 22.199219,43 H 25 34.726562 35.640625 L 43.001953,25 H 40.201172 L 35,37.71875 v -7.761719 c -0.469829,0.157088 -0.975524,0.242188 -1.5,0.242188 -0.524476,0 -1.030171,-0.0851 -1.5,-0.242188 V 40 h -6.492188 l 2.539063,-15 z"/>
 <path style="opacity:0.2" d="M 32,15 A 18,18 0 0 0 14,33 18,18 0 0 0 32,51 18,18 0 0 0 50,33 18,18 0 0 0 32,15 Z m 0,3 A 15,15 0 0 1 47,33 15,15 0 0 1 32,48 15,15 0 0 1 17,33 15,15 0 0 1 32,18 Z"/>
 <path style="fill:#ffffff" d="m 25.247751,24 h 2.8 L 25,42 h -2.8 z"/>
 <path style="fill:#ffffff" d="m 34.725899,39 v 3 H 22.200001 L 23.04,39 Z"/>
 <path style="fill:#6f6fee" d="M 32 14 A 18 18 0 0 0 14 32 A 18 18 0 0 0 32 50 A 18 18 0 0 0 50 32 A 18 18 0 0 0 32 14 z M 32 17 A 15 15 0 0 1 47 32 A 15 15 0 0 1 32 47 A 15 15 0 0 1 17 32 A 15 15 0 0 1 32 17 z"/>
 <path style="fill:#ffffff" d="M 32,28.956641 V 41.8 h 3 V 28.956641 C 34.530171,29.113729 34.024476,29.2 33.5,29.2 32.975524,29.2 32.469829,29.11373 32,28.956641 Z"/>
 <path style="fill:#ffffff" d="m 40.201059,24 h 2.8 L 35.64,42 h -2.8 z"/>
 <path style="opacity:0.2" d="m 14.996094,22.003906 c -1.061706,0.02079 -2.009278,0.123345 -2.832032,0.322266 -1.462671,0.353629 -2.690245,1.051874 -3.0605464,2.412109 -0.3703029,1.360234 0.2906429,2.742877 1.3164064,3.994141 0.835691,1.019402 2.194435,2.048482 3.621094,3.09375 0.05184,-0.804762 0.15637,-1.594664 0.310546,-2.367188 -0.955946,-0.755084 -1.917855,-1.475923 -2.435546,-2.107422 -0.803143,-0.9797 -0.938579,-1.615311 -0.859375,-1.90625 0.0792,-0.290939 0.507115,-0.725071 1.652343,-1.001953 1.145226,-0.276882 2.848071,-0.348962 4.916016,-0.179687 4.135892,0.338547 9.738042,1.624417 15.722656,3.783203 5.984616,2.158783 11.22108,4.783657 14.785156,7.222656 1.782041,1.2195 3.148029,2.397251 3.951172,3.376953 0.803141,0.979699 0.940533,1.617265 0.861328,1.908204 -0.07921,0.290939 -0.509069,0.725072 -1.654296,1.001953 -0.849354,0.205348 -2.199135,0.292392 -3.595704,0.257812 -0.412148,0.732269 -0.875734,1.431516 -1.382812,2.095703 2.118497,0.160889 4.101812,0.104952 5.521484,-0.238281 1.462671,-0.353632 2.692197,-1.05383 3.0625,-2.414063 0.370302,-1.360236 -0.294548,-2.73897 -1.320312,-3.990234 -1.025766,-1.251262 -2.520069,-2.515155 -4.410156,-3.808594 -3.780171,-2.58688 -9.136469,-5.258694 -15.257813,-7.466796 -6.121342,-2.208104 -11.847717,-3.533503 -16.234375,-3.892579 -0.548332,-0.04488 -1.072896,-0.07522 -1.578125,-0.08984 -0.378922,-0.01097 -0.745707,-0.01279 -1.099609,-0.0059 z"/>
 <path style="fill:#59d4f1" d="M 14.996094 21.003906 C 13.934388 21.0247 12.986816 21.127251 12.164062 21.326172 C 10.701391 21.679801 9.473817 22.378046 9.1035156 23.738281 C 8.7332127 25.098515 9.3941585 26.481158 10.419922 27.732422 C 11.255613 28.751824 12.614357 29.780904 14.041016 30.826172 C 14.09286 30.02141 14.197386 29.231508 14.351562 28.458984 C 13.395616 27.7039 12.433707 26.983061 11.916016 26.351562 C 11.112873 25.371862 10.977437 24.736251 11.056641 24.445312 C 11.135841 24.154373 11.563756 23.720241 12.708984 23.443359 C 13.85421 23.166477 15.557055 23.094397 17.625 23.263672 C 21.760892 23.602219 27.363042 24.888089 33.347656 27.046875 C 39.332272 29.205658 44.568736 31.830532 48.132812 34.269531 C 49.914853 35.489031 51.280841 36.666782 52.083984 37.646484 C 52.887125 38.626183 53.024517 39.263749 52.945312 39.554688 C 52.866102 39.845627 52.436243 40.27976 51.291016 40.556641 C 50.441662 40.761989 49.091881 40.849033 47.695312 40.814453 C 47.283164 41.546722 46.819578 42.245969 46.3125 42.910156 C 48.430997 43.071045 50.414312 43.015108 51.833984 42.671875 C 53.296655 42.318243 54.526181 41.618045 54.896484 40.257812 C 55.266786 38.897576 54.601936 37.518842 53.576172 36.267578 C 52.550406 35.016316 51.056103 33.752423 49.166016 32.458984 C 45.385845 29.872104 40.029547 27.20029 33.908203 24.992188 C 27.786861 22.784084 22.060486 21.458685 17.673828 21.099609 C 17.125496 21.054729 16.600932 21.024386 16.095703 21.009766 C 15.716781 20.998796 15.349996 20.996975 14.996094 21.003906 z"/>
 <circle style="opacity:0.2" cx="33.5" cy="26.5" r="2.5"/>
 <circle style="fill:#ffffff" cx="33.5" cy="25.5" r="2.5"/>
 <path style="fill:#ffffff;opacity:0.1" d="M 32 4 A 28 28 0 0 0 4 32 A 28 28 0 0 0 4.0351562 32.5 A 28 28 0 0 1 32 5 A 28 28 0 0 1 59.982422 32.251953 A 28 28 0 0 0 60 32 A 28 28 0 0 0 32 4 z"/>
</svg>
