<svg width="128" height="128" viewBox="0 0 128 128" fill="none" xmlns="http://www.w3.org/2000/svg">
<path fill-rule="evenodd" clip-rule="evenodd" d="M63.4999 120.303C95.7205 120.303 122 94.6297 122 63.1515C122 31.6736 95.7205 5.99998 63.4999 5.99998C31.2794 5.99998 5 31.6736 5 63.1515C5 94.6297 31.2794 120.303 63.4999 120.303Z" fill="#414868"/>
<g clip-path="url(#clip0_137_239)">
<path d="M58.0416 71.2429C57.5273 71.2466 46.1378 68.2736 39.1142 69.6195C33.259 70.7417 25.6629 92.1247 28.575 96.8749C31.2735 101.276 42.2254 103.773 42.2254 103.773L58.0416 71.2429Z" fill="#C0CAF5"/>
<path d="M58.0413 71.2432L55.4716 76.5323L42.2247 103.773C42.2247 103.773 36.9145 102.563 32.7773 100.34C30.9732 99.3729 29.3947 98.2123 28.5739 96.8749C25.6614 92.1251 33.2576 70.7409 39.1135 69.6191C46.1371 68.2735 57.5266 71.2465 58.0413 71.2432Z" fill="#C0CAF5"/>
<g opacity="0.35">
<path d="M55.4712 76.5293L42.2247 103.773C42.2219 103.774 42.2191 103.774 42.2164 103.773C42.1918 103.767 42.1143 103.749 41.9878 103.719L41.9057 103.698C41.9001 103.697 41.8945 103.696 41.8891 103.694C41.863 103.688 41.8332 103.68 41.8037 103.673C41.733 103.654 41.6526 103.636 41.5637 103.612C41.5422 103.606 41.5192 103.601 41.4961 103.595C41.4731 103.588 41.4549 103.584 41.4338 103.578C41.4126 103.573 41.3793 103.564 41.3514 103.556C41.0668 103.482 40.7199 103.387 40.3269 103.274C40.2793 103.261 40.2298 103.247 40.1806 103.233C40.0325 103.189 39.8783 103.144 39.7185 103.096C39.6659 103.079 39.6115 103.063 39.5575 103.047C39.4948 103.03 39.4309 103.01 39.3648 102.99C39.2862 102.964 39.2053 102.94 39.1233 102.916C39.0983 102.909 39.0757 102.901 39.0526 102.893C38.9933 102.874 38.9339 102.856 38.8731 102.837C38.7038 102.782 38.533 102.726 38.3554 102.669C38.3501 102.669 38.3437 102.664 38.3372 102.663C38.2156 102.623 38.0905 102.581 37.9654 102.538C37.9619 102.537 37.9586 102.536 37.9556 102.534C37.8653 102.504 37.7746 102.473 37.6827 102.441C37.6249 102.421 37.5694 102.401 37.5081 102.38C37.2897 102.302 37.066 102.224 36.8408 102.14C36.696 102.087 36.5494 102.029 36.4016 101.974C36.2682 101.924 36.1333 101.871 35.9988 101.818C35.8643 101.765 35.729 101.71 35.5926 101.655L35.1848 101.486C35.048 101.428 34.9131 101.371 34.7786 101.311C34.644 101.252 34.5072 101.192 34.3723 101.129C34.3704 101.129 34.3704 101.129 34.3704 101.129C34.2359 101.068 34.101 101.005 33.9676 100.944C33.8342 100.883 33.6997 100.815 33.5663 100.751C33.5451 100.741 33.5236 100.73 33.5039 100.72C33.3905 100.664 33.2802 100.609 33.1702 100.551C33.0387 100.484 32.9087 100.415 32.7787 100.345C30.9746 99.3781 29.3962 98.2175 28.5754 96.8801C27.0558 94.402 28.3977 87.3934 30.8613 81.0986C29.9679 84.9726 29.779 88.365 30.743 89.9377C31.0801 90.4884 31.5453 91.0081 32.1034 91.4974C32.7337 92.0528 33.4318 92.5296 34.1819 92.917C36.8627 85.3025 42.7103 75.959 46.7115 75.6442C49.0254 75.4637 51.7417 75.784 54.3749 76.3022C54.7426 76.3758 55.1092 76.4516 55.4712 76.5293Z" fill="#1A1B26"/>
</g>
<g opacity="0.35">
<path d="M58.0412 71.2432L55.4715 76.5323C55.1095 76.4535 54.7429 76.3777 54.3756 76.3052L56.9393 71.0309C57.5643 71.1611 57.9558 71.2432 58.0412 71.2432Z" fill="#1A1B26"/>
</g>
<path d="M42.5682 104.47L42.086 104.359C41.6284 104.254 30.8481 101.752 28.0474 97.1834C26.158 94.1028 28.239 85.1997 31.3416 78.3735C32.8063 75.1516 35.7498 69.6498 38.9959 69.0284C44.9766 67.8819 54.09 69.8096 57.0848 70.4432C57.527 70.5364 57.9457 70.6252 58.0617 70.6407L59.0193 70.6337L42.5682 104.47ZM43.3346 69.8736C41.8786 69.8736 40.4803 69.9712 39.2325 70.2102C37.2886 70.583 34.7589 73.8178 32.4658 78.865C29.1857 86.083 27.6457 94.1893 29.1025 96.5661C31.3253 100.191 39.7763 102.534 41.8865 103.07L57.1442 71.6882L56.8248 71.6208C54.5314 71.1348 48.5662 69.8736 43.3346 69.8736V69.8736Z" fill="#1A1B26"/>
<path d="M38.5628 69.4904C39.1742 69.9387 39.7653 70.3929 40.3556 70.8567C40.9458 71.3205 41.527 71.7921 42.0992 72.2777C42.6713 72.7634 43.2367 73.2568 43.7823 73.7764C44.328 74.2961 44.862 74.8302 45.3506 75.4208C45.4074 75.4909 45.4342 75.5798 45.4251 75.6688C45.4161 75.7577 45.372 75.8398 45.3023 75.8975C45.2325 75.9552 45.1425 75.9841 45.0513 75.9779C44.9602 75.9718 44.8751 75.9312 44.814 75.8647L44.8106 75.861C44.3303 75.328 43.7903 74.8317 43.2389 74.3493C42.6876 73.867 42.1105 73.4051 41.5282 72.9513C40.9458 72.4974 40.3514 72.0569 39.752 71.6242C39.1527 71.1914 38.5428 70.7639 37.9344 70.3563L37.931 70.3537C37.8704 70.3149 37.8184 70.2646 37.7779 70.2059C37.7375 70.1471 37.7094 70.0811 37.6954 70.0116C37.6814 69.9421 37.6818 69.8705 37.6964 69.8011C37.711 69.7318 37.7397 69.6659 37.7807 69.6076C37.8217 69.5492 37.8741 69.4994 37.9351 69.4611C37.996 69.4228 38.0641 69.3969 38.1354 69.3847C38.2067 69.3726 38.2798 69.3745 38.3503 69.3903C38.4208 69.4062 38.4874 69.4357 38.5462 69.4771C38.55 69.4808 38.5575 69.4864 38.5628 69.4904Z" fill="#1A1B26"/>
<path d="M30.3137 81.9153L35.9784 84.8373C36.2247 84.9639 36.421 85.167 36.5364 85.4148C36.6518 85.6625 36.6798 85.9408 36.6159 86.2058C36.1364 88.2001 34.7839 92.7502 32.3135 93.3915C30.2634 93.9241 27.8487 92.7313 26.9315 90.9116C25.9059 88.8773 27.6261 84.5806 28.5822 82.499C28.6524 82.3457 28.754 82.2082 28.8807 82.0949C29.0074 81.9815 29.1565 81.8949 29.3188 81.8402C29.4811 81.7855 29.6531 81.7639 29.8242 81.7768C29.9953 81.7898 30.1619 81.8369 30.3137 81.9153V81.9153Z" fill="#C0CAF5"/>
<g opacity="0.35">
<path d="M36.6152 86.2054C36.1368 88.1997 34.7835 92.7498 32.3132 93.3904C30.2627 93.923 27.8487 92.7306 26.9308 90.9101C26.3023 89.6596 26.7089 87.5513 27.3389 85.6306C27.1941 86.6625 27.2765 87.5854 27.5739 88.2936C29.2783 92.3596 32.9533 89.9862 32.9533 89.9862C32.9533 89.9862 32.9786 90.9526 33.2632 91.1276C34.4528 91.8603 35.924 87.8439 36.6363 85.7482C36.6597 85.9005 36.6525 86.0558 36.6152 86.2054V86.2054Z" fill="#1A1B26"/>
</g>
<path d="M31.2936 94.1202C29.3172 94.1202 27.275 92.9532 26.3809 91.1771C25.3179 89.0689 26.6866 85.1587 28.0221 82.2512C28.127 82.023 28.2784 81.8182 28.4672 81.6495C28.656 81.4809 28.8781 81.3518 29.1198 81.2704C29.3615 81.189 29.6177 81.157 29.8726 81.1762C30.1275 81.1955 30.3756 81.2656 30.6017 81.3824V81.3824L36.2664 84.3043C36.6329 84.4931 36.925 84.7955 37.0969 85.1643C37.2687 85.5331 37.3107 85.9473 37.2161 86.3419C36.6031 88.8906 35.1712 93.2713 32.4727 93.9718C32.0879 94.0711 31.6915 94.1209 31.2936 94.1202V94.1202ZM29.728 82.3732C29.6567 82.3734 29.586 82.385 29.5186 82.4076C29.4358 82.4353 29.3598 82.4794 29.2952 82.5372C29.2306 82.595 29.1789 82.6652 29.1434 82.7435C27.4591 86.4103 26.8382 89.3641 27.4836 90.6431C28.2995 92.262 30.4384 93.2539 32.156 92.8075C33.6517 92.4192 35.0949 89.8985 36.0174 86.0656C36.0495 85.9306 36.0349 85.7891 35.9759 85.6631C35.917 85.5371 35.817 85.4339 35.6916 85.3695L30.0265 82.4476C29.9347 82.3993 29.8322 82.3738 29.728 82.3732V82.3732Z" fill="#1A1B26"/>
<path d="M29.0231 92.4295C29.0876 92.4271 29.1518 92.4208 29.2155 92.4106C29.2911 92.3988 29.3666 92.3855 29.4422 92.3659C29.599 92.33 29.7529 92.2833 29.9029 92.226C30.2127 92.1113 30.5083 91.9624 30.7838 91.7822C31.3472 91.4234 31.8472 90.9471 32.2681 90.4015C32.4787 90.1257 32.6721 89.8378 32.8475 89.5393C33.033 89.2468 33.1925 88.9231 33.3535 88.6102C33.5145 88.2973 33.6584 87.9722 33.7873 87.6456C33.8504 87.4822 33.9116 87.3179 33.9638 87.1519C34.0163 86.9921 34.0574 86.829 34.087 86.6636L34.0896 86.6459C34.0954 86.6047 34.1174 86.5674 34.151 86.5419C34.1845 86.5165 34.227 86.5049 34.2691 86.5097C34.3113 86.5146 34.3499 86.5354 34.3765 86.5678C34.4031 86.6002 34.4157 86.6415 34.4116 86.6829C34.3814 87.082 34.2865 87.4226 34.1848 87.7788C34.0832 88.135 33.9581 88.4741 33.8255 88.8144C33.6928 89.1547 33.5583 89.4879 33.3879 89.8197C33.2276 90.1564 33.047 90.4834 32.8471 90.7991C32.438 91.4471 31.9177 92.021 31.309 92.4957C30.997 92.7407 30.6576 92.9504 30.2974 93.1208C30.114 93.2091 29.9246 93.285 29.7305 93.3478C29.633 93.3811 29.5314 93.4089 29.4282 93.4344C29.3135 93.4632 29.1968 93.4838 29.079 93.4962H29.0654C28.9942 93.5037 28.922 93.4975 28.8532 93.4778C28.7844 93.4581 28.7202 93.4253 28.6643 93.3813C28.6084 93.3374 28.562 93.283 28.5275 93.2215C28.4931 93.1599 28.4714 93.0923 28.4636 93.0226C28.4559 92.9528 28.4623 92.8822 28.4824 92.8148C28.5025 92.7475 28.536 92.6847 28.581 92.63C28.6259 92.5753 28.6814 92.5298 28.7443 92.4961C28.8072 92.4624 28.8763 92.4411 28.9475 92.4335C28.9726 92.4306 28.9979 92.4293 29.0231 92.4295V92.4295Z" fill="#1A1B26"/>
<path d="M46.4586 109.952C46.4586 109.952 68.9213 104.409 89.2466 108.658V98.533L50.747 87.2625L46.4586 109.952Z" fill="#C0CAF5"/>
<g opacity="0.35">
<path d="M89.2475 103.569V108.657C68.9214 104.409 46.4595 109.951 46.4595 109.951L47.4647 104.633C52.0407 103.63 71.4613 99.8508 89.2475 103.569Z" fill="#1A1B26"/>
</g>
<path d="M45.7705 110.67L50.3231 86.5834L89.7893 98.1372V109.314L89.1329 109.177C69.1696 105.005 46.8146 110.412 46.5909 110.467L45.7705 110.67ZM51.1711 87.9412L47.1438 109.25C51.3302 108.329 70.8381 104.461 88.7033 108.004V98.9288L51.1711 87.9412Z" fill="#1A1B26"/>
<path d="M95.9949 105.538C94.9832 109.4 90.2807 110.52 87.7971 109.698C85.3385 108.884 83.4702 104.989 83.4702 104.989C83.4702 104.989 77.6717 104.72 72.3255 98.1062C72.1645 97.907 72.0067 97.7041 71.852 97.4978C67.7257 91.9834 66.3298 84.5155 65.9568 81.9338C65.871 81.3446 65.8381 81.0092 65.8381 81.0092L73.7287 78.9971L75.9636 78.4275C76.0142 79.5669 76.1889 80.6979 76.4847 81.801C79.0106 91.112 89.639 94.098 92.6682 94.756C96.0342 95.489 97.0636 101.456 95.9949 105.538Z" fill="#C0CAF5"/>
<g opacity="0.35">
<path d="M95.9949 105.538C94.9832 109.4 90.2807 110.52 87.7971 109.698C85.3385 108.884 83.4702 104.989 83.4702 104.989C83.4702 104.989 77.6717 104.72 72.3255 98.1062C72.1645 97.9069 72.0067 97.7041 71.852 97.4977C67.7257 91.9834 66.3298 84.5154 65.9568 81.9338C65.871 81.3446 65.8381 81.0091 65.8381 81.0091L66.9896 80.7162C67.8659 83.964 69.3624 88.0055 71.8539 91.3358C72.0086 91.5419 72.1664 91.7447 72.3274 91.9442C77.6736 98.5578 83.472 98.8267 83.472 98.8267C83.472 98.8267 85.3404 102.723 87.799 103.536C90.2837 104.358 94.9851 103.24 95.9968 99.3755C96.0179 99.2949 96.0376 99.2128 96.0557 99.1307C96.5375 101.176 96.5096 103.574 95.9949 105.538Z" fill="#1A1B26"/>
</g>
<path d="M89.5225 110.553C88.8359 110.553 88.1787 110.46 87.6005 110.269C85.3267 109.517 83.5914 106.538 83.071 105.555C81.6679 105.38 76.5908 104.353 71.8421 98.4797C66.3112 91.6372 65.2667 81.4959 65.2243 81.0672C65.2107 80.9093 65.2613 80.7524 65.3651 80.6307C65.4689 80.5091 65.6176 80.4324 65.7788 80.4173C65.94 80.4022 66.1008 80.4499 66.2263 80.5501C66.3518 80.6503 66.4319 80.7949 66.4491 80.9526C66.4593 81.0543 67.5072 91.1742 72.8073 97.7326C77.8961 104.027 83.4451 104.384 83.5018 104.387L83.8691 104.406L84.0279 104.732C84.0456 104.769 85.8164 108.407 87.9958 109.128C89.3392 109.572 91.3168 109.331 92.8046 108.542C93.7421 108.044 94.9537 107.093 95.4003 105.388C96.1584 102.495 95.7884 98.9273 94.5206 96.906C93.9764 96.0383 93.3079 95.5131 92.5336 95.3448C90.9154 94.9927 86.7389 93.8945 82.9157 91.3081C78.1462 88.0813 75.5999 83.7572 75.3475 78.4563C75.3399 78.2968 75.3974 78.1408 75.5074 78.0228C75.6173 77.9047 75.7706 77.8342 75.9336 77.8268C76.0966 77.8194 76.256 77.8757 76.3766 77.9833C76.4972 78.0909 76.5692 78.2409 76.5768 78.4005C77.1229 89.8756 89.1329 93.3712 92.8008 94.169C93.8967 94.4075 94.8547 95.1362 95.5693 96.2772C96.9951 98.5504 97.4251 102.508 96.5922 105.688C96.1516 107.371 95.0429 108.724 93.3914 109.602C92.2177 110.224 90.8176 110.553 89.5225 110.553Z" fill="#1A1B26"/>
<path d="M74.3038 74.4511C74.0835 75.9187 73.8911 77.4529 73.7267 78.9978C73.6081 80.0956 73.5045 81.1996 73.4108 82.2941C72.745 90.1696 72.6807 97.4674 72.6807 97.4674L71.852 97.4978L50.8831 98.269C52.7182 101.097 52.6721 104.29 52.6721 104.29L49.9966 120.382C49.9966 120.382 47.8754 122.212 44.463 119.571C42.9763 118.42 43.1188 115.489 39.4471 113.886C32.1027 110.676 33.7409 98.6384 35.4543 94.2089C36.1085 92.4749 36.8777 90.7845 37.7568 89.1484C38.6372 87.5052 39.6054 85.9085 40.6575 84.365C44.045 79.3755 47.951 75.2855 50.8174 72.5866C53.2359 70.3056 54.9187 69.0181 54.9187 69.0181C54.9187 69.0181 74.9863 69.9154 74.3038 74.4511Z" fill="#C0CAF5"/>
<g opacity="0.35">
<path d="M52.672 104.29L49.9965 120.382C49.9965 120.382 47.8754 122.212 44.4629 119.571C42.9763 118.42 43.1187 115.489 39.4471 113.886C34.5563 111.748 33.6486 105.695 34.096 100.581C34.4807 104.34 35.9409 107.861 39.4471 109.358C42.0455 110.467 42.4415 114.863 45.4364 111.164C48.1365 107.826 49.9965 115.855 49.9965 115.855L52.3395 101.755C52.6868 103.213 52.672 104.29 52.672 104.29Z" fill="#1A1B26"/>
</g>
<path d="M38.4469 98.0851C38.709 97.7192 38.9946 97.37 39.302 97.0395C39.6073 96.707 39.9304 96.3906 40.2702 96.0919C40.613 95.789 40.9747 95.5074 41.3533 95.2486L41.6416 95.0552L41.9413 94.8754C42.038 94.814 42.1522 94.7615 42.2576 94.7046C42.3644 94.6475 42.4742 94.5958 42.5864 94.5496C44.3716 93.7518 46.5543 93.909 48.2526 94.8825C49.9267 95.8223 51.2199 97.3114 52.0338 98.9717C52.4355 99.8007 52.743 100.67 52.951 101.565C53.0561 102.009 53.1358 102.458 53.1966 102.91C53.2274 103.136 53.2516 103.363 53.2692 103.591C53.2862 103.825 53.2994 104.04 53.2987 104.3V104.342L53.2907 104.389L51.9443 112.434L50.6077 120.481L50.5699 120.703L50.4059 120.837C50.3102 120.914 50.2092 120.985 50.1035 121.049C50.0087 121.101 49.9146 121.16 49.8171 121.202C49.7216 121.25 49.6234 121.292 49.5231 121.328C49.4245 121.368 49.3236 121.402 49.2208 121.43C49.0185 121.489 48.8123 121.533 48.6037 121.564C48.3958 121.58 48.188 121.612 47.9794 121.599C47.148 121.591 46.3544 121.359 45.6526 121.021L45.3881 120.896L45.1391 120.75C44.9758 120.649 44.799 120.562 44.6478 120.449L44.1841 120.12C44.1463 120.09 44.1085 120.067 44.0674 120.034L43.9423 119.923C43.8633 119.847 43.7692 119.775 43.705 119.693C43.4087 119.373 43.2137 119.033 43.0247 118.704C42.8494 118.378 42.6899 118.054 42.5335 117.751C42.2209 117.137 41.8929 116.573 41.4753 116.086C41.0591 115.598 40.5607 115.182 40.0015 114.858L39.7933 114.731L39.5715 114.623L39.118 114.401L38.601 114.146C38.4261 114.066 38.2696 113.952 38.1037 113.855L37.8581 113.704C37.7772 113.653 37.7032 113.593 37.6253 113.535C37.4742 113.419 37.3143 113.309 37.1684 113.185L36.7422 112.801C36.5986 112.674 36.4776 112.527 36.3457 112.39C35.8357 111.83 35.3984 111.211 35.0439 110.546C34.6905 109.894 34.4011 109.21 34.1796 108.504C33.9571 107.808 33.7858 107.098 33.6672 106.378C33.598 106.021 33.5625 105.661 33.513 105.302C33.4816 104.943 33.4393 104.584 33.4246 104.224C33.3369 102.786 33.3944 101.349 33.5451 99.9259C33.7042 98.5031 33.9536 97.0917 34.3331 95.7006C34.5205 95.0022 34.7503 94.3154 35.0212 93.6438L35.415 92.6507L35.8447 91.6702C36.433 90.3708 37.0675 89.0915 37.7768 87.8539C39.1773 85.368 40.7902 83.0087 42.5384 80.7525C44.2921 78.505 46.176 76.3577 48.1808 74.3213C49.1812 73.3027 50.2092 72.3109 51.2648 71.3461C52.3252 70.3811 53.3943 69.4475 54.5408 68.5454L54.7177 68.4064L54.9482 68.4182C56.832 68.5147 58.6928 68.6671 60.56 68.862C62.4272 69.057 64.2865 69.3059 66.1404 69.6388C67.0678 69.8063 67.9922 69.9968 68.9131 70.2265C69.834 70.4562 70.7508 70.7217 71.6544 71.0772C72.1147 71.2545 72.5622 71.4623 72.9936 71.6993C73.4313 71.9441 73.8651 72.2349 74.2502 72.6421C74.4391 72.8499 74.6205 73.0815 74.7467 73.3685C74.8785 73.6605 74.943 73.9773 74.9357 74.2965L74.916 74.5336L74.8922 74.7037L74.8454 75.0407L74.749 75.712C74.6156 76.6089 74.5222 77.5132 74.4089 78.412C74.3174 79.3159 74.2124 80.218 74.136 81.1242C73.9611 82.9336 73.8375 84.7489 73.7411 86.5657C73.6527 88.3832 73.5745 90.2011 73.4513 92.0175C73.3281 93.8339 73.18 95.651 72.8844 97.4678C72.8769 97.5161 72.8519 97.5601 72.814 97.5917C72.776 97.6233 72.7276 97.6405 72.6778 97.6401C72.6279 97.6396 72.5799 97.6216 72.5425 97.5893C72.5052 97.5569 72.481 97.5125 72.4744 97.4641C72.3448 96.5476 72.279 95.6326 72.2409 94.7168C72.2027 93.801 72.1917 92.8859 72.2031 91.9713C72.2254 90.1419 72.3202 88.3144 72.4635 86.4895C72.7401 82.84 73.0152 79.188 73.5257 75.5496L73.621 74.8676L73.6686 74.5265L73.692 74.3579C73.692 74.3227 73.6958 74.2883 73.6996 74.2536C73.7017 74.1154 73.6734 73.9785 73.6168 73.8519C73.5605 73.7173 73.4547 73.5815 73.3356 73.4491C73.0874 73.1847 72.748 72.9457 72.3769 72.7405C71.9951 72.5312 71.5991 72.3475 71.1918 72.1908C70.3638 71.8668 69.4913 71.6124 68.6044 71.3912C67.7174 71.17 66.8184 70.9843 65.9122 70.8209C64.0983 70.4946 62.2636 70.252 60.4225 70.0556C58.5813 69.8592 56.7266 69.7101 54.887 69.6162L55.2947 69.4886C54.2075 70.3434 53.1362 71.2769 52.0992 72.2215C51.0623 73.1662 50.048 74.1478 49.0628 75.1505C47.0909 77.1533 45.2378 79.265 43.5126 81.4752C41.7966 83.6877 40.2162 86.0016 38.8497 88.4287C38.1566 89.637 37.5391 90.8831 36.967 92.1462L36.5513 93.0986L36.1681 94.0662C35.9122 94.6987 35.6955 95.3458 35.5193 96.0039C35.164 97.3314 34.9126 98.6835 34.7673 100.048C34.6225 101.413 34.5685 102.788 34.6516 104.149C34.6652 104.49 34.7057 104.828 34.7348 105.167C34.7816 105.503 34.8141 105.842 34.8791 106.174C34.9885 106.839 35.1466 107.495 35.3522 108.138C35.5508 108.773 35.8104 109.388 36.1277 109.975C36.436 110.555 36.8169 111.095 37.2614 111.583C37.3748 111.7 37.4779 111.829 37.6015 111.936L37.9654 112.264C38.0897 112.37 38.2258 112.462 38.3547 112.56C38.4212 112.608 38.4835 112.661 38.5527 112.705L38.7624 112.833C38.9045 112.914 39.0356 113.014 39.1864 113.081L39.6289 113.3L40.1349 113.547L40.393 113.674L40.6413 113.822C41.3164 114.216 41.9184 114.718 42.4216 115.309C42.9253 115.899 43.3063 116.564 43.6309 117.204C43.7964 117.527 43.9479 117.833 44.1063 118.129C44.2676 118.41 44.4305 118.684 44.6183 118.882C44.6614 118.941 44.7166 118.972 44.7634 119.02L44.836 119.088C44.8628 119.111 44.9018 119.135 44.9339 119.159L45.3394 119.447C45.4728 119.548 45.6198 119.618 45.7588 119.706L45.9701 119.831L46.1893 119.933C46.769 120.214 47.3849 120.384 47.9873 120.39C48.1385 120.402 48.2855 120.374 48.4344 120.367C48.5798 120.345 48.7235 120.313 48.8648 120.273C48.9352 120.254 49.0041 120.231 49.0711 120.203C49.1389 120.179 49.2051 120.151 49.2691 120.118C49.3356 120.091 49.3923 120.053 49.4543 120.02C49.5046 119.989 49.5786 119.938 49.5904 119.929L49.3897 120.284L50.7263 112.238L52.0539 104.19L52.0459 104.279C52.0459 104.104 52.0323 103.885 52.0153 103.685C51.9983 103.484 51.9745 103.274 51.9454 103.069C51.8874 102.658 51.8078 102.251 51.707 101.849C51.5092 101.049 51.2228 100.273 50.8529 99.535C50.668 99.1705 50.4615 98.8169 50.2343 98.4761C50.0036 98.1409 49.7512 97.8205 49.4785 97.517C49.2029 97.2184 48.906 96.9393 48.5901 96.6819C48.4347 96.5509 48.2688 96.4322 48.1045 96.312C47.9344 96.201 47.7643 96.0779 47.5947 95.985C47.2529 95.7873 46.8914 95.6244 46.5158 95.4987C46.1382 95.3775 45.7481 95.2976 45.3526 95.2605C44.9563 95.2216 44.5569 95.225 44.1615 95.2708C43.765 95.323 43.3751 95.4154 42.9983 95.5467C42.9028 95.5778 42.809 95.6138 42.7175 95.6547C42.6253 95.6965 42.5335 95.7287 42.4397 95.779C42.2508 95.8719 42.0637 95.964 41.8789 96.0675C41.509 96.2717 41.1481 96.4984 40.7925 96.7388C40.0806 97.2299 39.4023 97.7661 38.762 98.344L38.756 98.35C38.7187 98.3835 38.6701 98.4025 38.6195 98.4032C38.5689 98.4039 38.5198 98.3863 38.4815 98.3538C38.4433 98.3214 38.4186 98.2762 38.4122 98.2271C38.4058 98.1779 38.4182 98.1282 38.4469 98.0873V98.0851Z" fill="#1A1B26"/>
<path d="M83.4698 105.52C83.36 105.52 83.2527 105.488 83.1622 105.427C83.0717 105.366 83.0021 105.28 82.9626 105.179C82.6705 104.44 81.9487 103.167 81.2568 102.9C81.1228 102.849 81.0152 102.747 80.9578 102.618C80.9004 102.488 80.8979 102.342 80.9507 102.211C81.0035 102.08 81.1074 101.975 81.2395 101.918C81.3716 101.862 81.5211 101.86 81.6551 101.911C83.0155 102.435 83.882 104.557 83.9765 104.796C84.0081 104.877 84.0193 104.964 84.009 105.049C83.9987 105.135 83.9672 105.217 83.9173 105.288C83.8675 105.359 83.8007 105.417 83.7227 105.458C83.6447 105.498 83.5579 105.519 83.4698 105.519V105.52Z" fill="#1A1B26"/>
<path d="M65.3804 105.52C65.2706 105.52 65.1633 105.488 65.0728 105.427C64.9823 105.366 64.9127 105.28 64.8733 105.179C64.5812 104.44 63.8594 103.167 63.1671 102.9C63.1007 102.875 63.0402 102.837 62.9889 102.788C62.9376 102.74 62.8965 102.682 62.8681 102.618C62.8397 102.554 62.8244 102.485 62.8232 102.415C62.822 102.345 62.8348 102.276 62.861 102.211C62.8871 102.146 62.9261 102.087 62.9756 102.037C63.0252 101.986 63.0844 101.946 63.1498 101.918C63.2152 101.891 63.2855 101.876 63.3568 101.874C63.4282 101.873 63.499 101.886 63.5654 101.911C64.9258 102.435 65.7923 104.557 65.8872 104.796C65.9188 104.877 65.9299 104.964 65.9196 105.049C65.9093 105.135 65.8779 105.217 65.828 105.288C65.7781 105.359 65.7113 105.417 65.6333 105.458C65.5554 105.498 65.4686 105.519 65.3804 105.519V105.52Z" fill="#1A1B26"/>
<path d="M74.014 92.9299C75.3966 92.9299 76.5175 91.8328 76.5175 90.4795C76.5175 89.1262 75.3966 88.0292 74.014 88.0292C72.6313 88.0292 71.5104 89.1262 71.5104 90.4795C71.5104 91.8328 72.6313 92.9299 74.014 92.9299Z" fill="#F7768E"/>
<g opacity="0.35">
<path d="M76.5172 90.4803C76.5176 90.8674 76.4244 91.249 76.2451 91.594C76.0658 91.939 75.8055 92.2376 75.4856 92.4651C75.1657 92.6927 74.7953 92.8429 74.4047 92.9034C74.014 92.9638 73.6143 92.9328 73.2383 92.813C72.8623 92.6931 72.5206 92.4878 72.2413 92.2138C71.962 91.9398 71.7529 91.6049 71.6313 91.2366C71.5097 90.8683 71.479 90.477 71.5416 90.0948C71.6043 89.7126 71.7586 89.3504 71.9918 89.0378C72.0895 89.5028 72.323 89.93 72.6641 90.2675C73.0051 90.605 73.439 90.8383 73.9129 90.939C74.3869 91.0397 74.8805 91.0035 75.3338 90.8348C75.7871 90.6661 76.1807 90.3722 76.4665 89.9888C76.5001 90.1506 76.517 90.3152 76.5172 90.4803V90.4803Z" fill="#1A1B26"/>
</g>
<path d="M74.0139 93.4614C73.4113 93.4614 72.8223 93.2865 72.3213 92.9589C71.8203 92.6312 71.4298 92.1655 71.1992 91.6206C70.9686 91.0758 70.9083 90.4762 71.0258 89.8978C71.1434 89.3194 71.4335 88.7881 71.8596 88.371C72.2857 87.954 72.8286 87.67 73.4195 87.555C74.0105 87.4399 74.6231 87.499 75.1798 87.7247C75.7365 87.9504 76.2123 88.3325 76.5471 88.8229C76.8819 89.3133 77.0605 89.8898 77.0605 90.4795C77.0596 91.2701 76.7384 92.028 76.1672 92.5871C75.596 93.1461 74.8216 93.4605 74.0139 93.4614V93.4614ZM74.0139 88.561C73.6261 88.561 73.247 88.6735 72.9245 88.8843C72.6021 89.0951 72.3507 89.3948 72.2023 89.7454C72.0539 90.0961 72.015 90.4819 72.0906 90.8542C72.1663 91.2264 72.353 91.5684 72.6272 91.8367C72.9014 92.1051 73.2508 92.2879 73.6311 92.3619C74.0115 92.4359 74.4057 92.3979 74.764 92.2526C75.1222 92.1074 75.4284 91.8614 75.6438 91.5457C75.8592 91.2301 75.9741 90.8591 75.9741 90.4795C75.9735 89.9709 75.7668 89.4833 75.3993 89.1236C75.0318 88.7639 74.5336 88.5616 74.0139 88.561V88.561Z" fill="#1A1B26"/>
<path d="M74.2101 85.3862L73.9456 89.7269L73.7415 93.1038C73.7151 93.546 73.5184 93.9621 73.1909 94.2679C72.8635 94.5738 72.4297 94.7468 71.9771 94.7519C71.3725 94.76 70.6219 94.7615 69.7618 94.7471C66.7009 94.6957 62.2333 94.4431 57.8641 93.5609C57.412 93.4687 57.0138 93.209 56.7527 92.8362C56.4915 92.4634 56.3877 92.0063 56.4628 91.5603L57.9366 82.7705C57.9759 82.5356 58.0636 82.311 58.1944 82.1103C58.3253 81.9097 58.4965 81.7373 58.6977 81.6035C58.8988 81.4698 59.1257 81.3776 59.3645 81.3325C59.6033 81.2874 59.8489 81.2904 60.0865 81.3413C63.1154 81.9852 69.1621 83.2132 72.601 83.5383C73.0614 83.5826 73.4863 83.8 73.7864 84.1446C74.0865 84.4892 74.2383 84.9342 74.2101 85.3862V85.3862Z" fill="#C0CAF5"/>
<path d="M59.9504 81.3183L56.3252 81.0276C55.9421 80.9967 55.5612 81.1087 55.2588 81.3411C54.9564 81.5735 54.7549 81.9091 54.6946 82.2807L53.2775 91.0095C53.2178 91.3768 53.3004 91.7527 53.509 92.0635C53.7177 92.3743 54.0374 92.5977 54.4055 92.6898L57.649 93.5036" fill="#C0CAF5"/>
<path d="M71.0606 95.2897C67.9618 95.2897 62.8069 95.1025 57.7548 94.082C57.1646 93.9636 56.6444 93.6255 56.3038 93.1391C55.9632 92.6528 55.8288 92.056 55.9288 91.4745L57.4026 82.6846C57.4538 82.3791 57.5679 82.0868 57.7381 81.8258C57.9083 81.5647 58.1309 81.3402 58.3924 81.166C58.654 80.9917 58.949 80.8713 59.2596 80.8121C59.5701 80.7529 59.8898 80.7562 60.199 80.8216C63.4017 81.5018 69.2784 82.6898 72.6504 83.0086C73.2516 83.0644 73.8069 83.347 74.1989 83.7966C74.5908 84.2462 74.7886 84.8274 74.7504 85.4172L74.2852 93.1363C74.2483 93.7119 73.9912 94.2527 73.5651 94.651C73.139 95.0494 72.5752 95.2759 71.9861 95.2856C71.7034 95.2874 71.3935 95.2897 71.0606 95.2897ZM59.7028 81.8325C59.4076 81.8337 59.1223 81.9372 58.8976 82.1247C58.673 82.3122 58.5234 82.5715 58.4754 82.8566L57.0016 91.6469C56.948 91.9574 57.0195 92.2762 57.2011 92.5362C57.3828 92.7962 57.6603 92.9771 57.9755 93.0409C63.4697 94.1505 69.1031 94.2559 71.9732 94.2207C72.2882 94.2157 72.5897 94.0945 72.8175 93.8815C73.0452 93.6685 73.1826 93.3793 73.2021 93.0716L73.6689 85.3543C73.6897 85.0394 73.5844 84.729 73.3754 84.4887C73.1664 84.2485 72.8701 84.0973 72.5491 84.0672C69.122 83.7428 63.198 82.5459 59.9715 81.861C59.8833 81.8421 59.7932 81.8326 59.7028 81.8325V81.8325Z" fill="#1A1B26"/>
<path d="M57.6494 94.034C57.6039 94.0338 57.5585 94.0283 57.5144 94.0173L54.2706 93.2036C53.7704 93.0804 53.3357 92.7779 53.0525 92.356C52.7693 91.9341 52.6582 91.4235 52.7412 90.9252L54.1583 82.1964C54.242 81.6932 54.5157 81.2392 54.9252 80.9241C55.3347 80.609 55.8501 80.4559 56.3694 80.495L59.995 80.7861C60.1385 80.7976 60.2716 80.8645 60.3648 80.972C60.458 81.0795 60.5037 81.2189 60.4919 81.3594C60.4801 81.4999 60.4118 81.6301 60.302 81.7213C60.1921 81.8125 60.0497 81.8573 59.9062 81.8458L56.281 81.5547C56.0344 81.5359 55.7897 81.6084 55.5952 81.7578C55.4006 81.9073 55.2706 82.1229 55.2308 82.3617L53.8141 91.0906C53.774 91.3275 53.8264 91.5704 53.9609 91.7712C54.0954 91.9721 54.3021 92.1161 54.54 92.1746L57.7839 92.9883C57.9123 93.0202 58.0244 93.0969 58.0991 93.204C58.1738 93.3111 58.2059 93.4413 58.1893 93.5699C58.1728 93.6986 58.1088 93.8169 58.0093 93.9025C57.9099 93.9882 57.7818 94.0354 57.6494 94.0351V94.034Z" fill="#1A1B26"/>
<g opacity="0.35">
<path d="M56.4965 91.9561C56.3434 94.034 55.1217 95.3137 49.1652 94.6088C43.584 93.9489 38.7556 92.1895 37.7576 89.1458C38.6379 87.5026 39.6062 85.9059 40.6583 84.3624C40.9397 84.389 41.2123 84.4724 41.4591 84.6072C43.0346 85.4779 45.7464 88.4797 54.9044 88.9028C54.9036 88.9028 56.6503 89.8815 56.4965 91.9561Z" fill="#1A1B26"/>
</g>
<path d="M54.9043 86.9721C54.9043 86.9721 56.6502 87.9485 56.4964 90.0253C56.3426 92.1021 55.1201 93.3822 49.1651 92.6773C43.2102 91.9723 38.1116 90.0179 37.6071 86.5848C37.1026 83.1518 39.8832 81.8062 41.4586 82.6761C43.0341 83.546 45.7459 86.5486 54.9043 86.9721Z" fill="#C0CAF5"/>
<g opacity="0.35">
<path d="M56.4643 90.3353C56.2062 92.2264 54.8182 93.3468 49.1644 92.6773C43.208 91.9723 38.1101 90.0183 37.6071 86.5852C37.3127 84.5828 38.1362 83.2905 39.1856 82.7335C39.0722 83.2405 39.0458 83.8264 39.1429 84.4911C39.6463 87.9242 44.7437 89.8782 50.7006 90.5842C53.6077 90.9278 55.3873 90.7991 56.4643 90.3353Z" fill="#1A1B26"/>
</g>
<path d="M52.0613 93.4765C51.205 93.4765 50.2202 93.4089 49.0903 93.275C41.8966 92.4243 37.4888 90.0165 36.9975 86.6707C36.7239 84.808 37.3044 83.2461 38.59 82.385C39.5767 81.7244 40.8196 81.6327 41.7606 82.1516C42.0413 82.3066 42.3395 82.5123 42.6849 82.7504C44.3427 83.8944 47.4294 86.0234 54.9337 86.3707L55.0815 86.3774L55.21 86.4513C55.295 86.4987 57.2884 87.6434 57.1104 90.0708C57.0587 90.7669 56.8837 91.7763 55.982 92.5049C55.1688 93.1581 53.9168 93.4765 52.0613 93.4765ZM40.4179 83.0197C40.0118 83.0257 39.6168 83.1508 39.2842 83.3788C38.4003 83.9706 38.0107 85.1083 38.2151 86.499C38.6153 89.2238 42.7359 91.3099 49.2377 92.0792C52.3674 92.4491 54.317 92.2841 55.199 91.5732C55.6147 91.2381 55.8256 90.7473 55.8823 89.9828C55.9858 88.5854 55.0411 87.8006 54.7074 87.5665C46.9661 87.1785 43.723 84.9404 41.9752 83.7354C41.657 83.5161 41.3823 83.3263 41.1555 83.2013C40.9297 83.0796 40.6756 83.0171 40.4179 83.0197V83.0197Z" fill="#1A1B26"/>
<g opacity="0.35">
<path d="M73.947 89.7269L73.743 93.1037C73.7166 93.546 73.5198 93.962 73.1924 94.2679C72.8649 94.5738 72.4312 94.7467 71.9785 94.7519C71.3739 94.76 70.6234 94.7615 69.7633 94.7471C69.1927 94.1131 68.8522 92.9846 68.9319 91.7404C69.0502 89.9103 70.0369 88.5263 71.1336 88.6487C71.7503 88.7179 72.446 88.7918 72.6599 88.8177C72.6695 88.8202 72.6795 88.8212 72.6894 88.8207C72.7026 88.8207 72.7139 88.8207 72.7272 88.824C73.2101 88.8773 73.6345 89.212 73.947 89.7269Z" fill="#1A1B26"/>
</g>
<g opacity="0.35">
<path d="M72.7283 90.0394C72.7151 90.0394 72.7038 90.0394 72.6906 90.0361C72.7151 90.0376 72.7283 90.0394 72.7283 90.0394Z" fill="#1A1B26"/>
</g>
<path d="M65.2025 95.1336C65.1788 95.1334 65.155 95.1319 65.1315 95.1291C64.9886 95.1108 64.859 95.0377 64.7712 94.9259C64.6834 94.8141 64.6446 94.6727 64.6632 94.5329L65.2713 89.9743L63.2163 87.9771C63.1575 87.9201 63.1129 87.8508 63.0857 87.7744C63.0585 87.698 63.0495 87.6165 63.0594 87.5362L63.7223 82.1284C63.7394 81.9884 63.8127 81.8608 63.9259 81.7737C64.0392 81.6866 64.1831 81.647 64.3262 81.6638C64.4692 81.6806 64.5995 81.7523 64.6885 81.8631C64.7776 81.974 64.8179 82.1149 64.8008 82.2549L64.1678 87.4063L66.2255 89.4036C66.2848 89.4613 66.3298 89.5316 66.3568 89.609C66.3839 89.6864 66.3924 89.7689 66.3816 89.8501L65.7391 94.6694C65.7224 94.7973 65.6588 94.9149 65.5601 95.0003C65.4614 95.0857 65.3343 95.1331 65.2025 95.1336Z" fill="#1A1B26"/>
<g opacity="0.35">
<path d="M76.4827 81.8018C75.6717 81.9832 74.8519 82.1244 74.0264 82.2249C73.8208 82.2508 73.6152 82.2748 73.4096 82.294C71.1686 82.517 68.907 82.4412 66.6868 82.0688C66.4419 82.027 66.1955 81.9819 65.9537 81.9338C65.7269 81.8887 65.4979 81.8402 65.2712 81.7903C59.5385 80.4898 54.3877 77.2435 50.8162 72.584C53.2347 70.303 54.9175 69.0155 54.9175 69.0155C54.9175 69.0155 74.9839 69.9154 74.3037 74.4525C74.0834 75.9202 73.8911 77.4544 73.7267 78.9993L75.9616 78.4297C76.0123 79.5686 76.187 80.6991 76.4827 81.8018V81.8018Z" fill="#1A1B26"/>
</g>
<path d="M92.4233 69.4183C89.9487 72.842 86.6156 75.5849 82.7446 77.383C81.9307 77.7611 81.0967 78.0963 80.2463 78.3872C79.8306 78.5311 79.4028 78.6639 78.9709 78.7896C77.688 79.156 76.3773 79.4216 75.0513 79.5841C72.6103 79.8864 70.137 79.8339 67.7117 79.4284C67.2363 79.347 66.7645 79.2538 66.2961 79.1487C57.7322 77.2066 50.4621 70.917 47.8286 62.0687C43.946 49.035 51.5955 35.3899 64.9096 31.5918C67.4056 30.8772 70.0001 30.5472 72.5999 30.6135C72.8961 30.6187 73.1935 30.632 73.4902 30.6505C74.2838 30.6978 75.0701 30.7817 75.849 30.902C79.4259 31.4603 82.8381 32.7651 85.8543 34.7279C86.3304 35.0376 86.7965 35.3631 87.2525 35.7043C91.479 38.8854 94.5611 43.3008 96.0523 48.3108C98.2864 55.808 96.7049 63.506 92.4233 69.4183Z" fill="#C0CAF5"/>
<path d="M71.9146 79.8381C71.8391 79.8381 71.7635 79.8381 71.6879 79.8381C70.3513 79.8263 69.0178 79.7095 67.7003 79.489C67.2279 79.4087 66.7507 79.3144 66.2817 79.209C57.409 77.1951 50.3151 70.634 47.7707 62.0857C43.8851 49.042 51.5667 35.3355 64.8944 31.5315C67.3963 30.8139 69.9974 30.4831 72.6036 30.551C72.8866 30.5558 73.187 30.5687 73.4965 30.588C74.2879 30.6353 75.0837 30.72 75.8607 30.8406C79.4465 31.3997 82.8673 32.7075 85.8909 34.6753C86.3734 34.989 86.8443 35.3185 87.2891 35.6547C91.5265 38.843 94.6162 43.2693 96.1104 48.2919C98.2746 55.5561 96.9486 63.2685 92.472 69.452L92.4217 69.415L92.472 69.452C89.9885 72.8816 86.6479 75.6306 82.7694 77.4362C81.9534 77.815 81.1175 78.1511 80.2651 78.443C79.8785 78.5765 79.4605 78.7082 78.987 78.8462C77.7006 79.213 76.3864 79.4794 75.0569 79.6429C74.0147 79.7726 72.9652 79.8378 71.9146 79.8381V79.8381ZM71.9309 30.663C69.5608 30.6655 67.203 30.9972 64.928 31.648C51.6664 35.4332 44.0223 49.0724 47.8886 62.0509C50.4205 70.5578 57.4797 77.0863 66.3108 79.0892C66.7779 79.1938 67.2529 79.2874 67.723 79.3677C70.1422 79.7723 72.6092 79.8247 75.044 79.5234C76.3663 79.3608 77.6732 79.0957 78.9526 78.7308C79.4239 78.5932 79.8399 78.4619 80.225 78.3295C81.0738 78.0388 81.9064 77.7044 82.7192 77.3279C86.5784 75.5308 89.9024 72.7954 92.3737 69.3828C96.828 63.2297 98.1476 55.555 95.994 48.3267C94.5071 43.3287 91.4326 38.9241 87.2162 35.7513C86.7721 35.4184 86.3035 35.0892 85.8236 34.777C82.8141 32.8197 79.4098 31.5185 75.8414 30.9619C75.0678 30.8424 74.2765 30.7577 73.4886 30.7111C73.1806 30.6904 72.8821 30.6775 72.6009 30.6741C72.3777 30.6667 72.1546 30.663 71.9316 30.663H71.9309Z" fill="#1A1B26"/>
<g opacity="0.35">
<path d="M47.8305 62.0676C50.4629 70.9167 57.7341 77.2066 66.2984 79.1476C66.7665 79.2534 67.238 79.3465 67.7129 79.4269C70.1377 79.8337 72.6106 79.8868 75.0513 79.5845C76.3772 79.4221 77.6878 79.1564 78.9705 78.79C79.4017 78.6631 79.828 78.5311 80.2459 78.3883C81.096 78.0963 81.9298 77.7606 82.7438 77.3826C86.6153 75.585 89.9486 72.842 92.423 69.418C93.7582 67.5738 94.8289 65.5593 95.6053 63.4306C92.6174 67.3614 88.4951 70.3262 83.7698 71.943C83.3541 72.0873 82.9271 72.2186 82.4948 72.3451C80.1305 73.02 77.6781 73.3527 75.2153 73.3326C73.882 73.3202 72.5519 73.2034 71.2376 72.9835C70.7614 72.9021 70.2895 72.8088 69.822 72.7035C61.258 70.7595 53.988 64.4717 51.3536 55.6216C49.8672 50.6608 50.0249 45.3665 51.8041 40.4989C47.2648 46.4689 45.5374 54.3744 47.8305 62.0676Z" fill="#1A1B26"/>
</g>
<path d="M71.9147 80.2442C71.8391 80.2442 71.7635 80.2442 71.6879 80.2442C70.329 80.2321 68.9733 80.1133 67.6338 79.8892C67.1527 79.8074 66.6683 79.7116 66.1921 79.6048C57.169 77.5575 49.9587 70.8885 47.372 62.1992C43.4211 48.9407 51.2307 35.0082 64.778 31.1416C67.3218 30.4143 69.9656 30.078 72.6149 30.1448C72.901 30.1497 73.2086 30.1633 73.5249 30.1844C74.3264 30.2321 75.1351 30.3183 75.9253 30.4407C79.5701 31.0091 83.0473 32.3386 86.1206 34.3388C86.6119 34.6576 87.0899 34.9927 87.5434 35.3341C91.8509 38.5748 94.9917 43.0742 96.5102 48.1799C98.7103 55.5635 97.3624 63.4032 92.8125 69.6868L92.4236 69.4168L92.8125 69.6868C90.2879 73.1732 86.892 75.9678 82.9493 77.8035C82.1199 78.1882 81.2702 78.5296 80.4038 78.8262C80.0119 78.9616 79.5871 79.0954 79.1072 79.2353C77.7995 79.6085 76.4636 79.8796 75.1121 80.046C74.0516 80.1778 72.9837 80.2441 71.9147 80.2442ZM71.9335 31.0691C69.6021 31.0716 67.2827 31.3978 65.0448 32.0378C52.0028 35.7605 44.4871 49.1737 48.288 61.9381C50.778 70.3037 57.72 76.7242 66.4053 78.693C66.864 78.7959 67.3319 78.8883 67.7948 78.9671C69.0834 79.1828 70.3875 79.2971 71.6947 79.3089C74.111 79.328 76.5171 79.0017 78.837 78.3402C79.2992 78.2059 79.7092 78.0765 80.0871 77.9459C80.9219 77.6599 81.7407 77.3309 82.54 76.9602C86.3349 75.1931 89.6035 72.5033 92.0336 69.1475C96.4142 63.0962 97.7119 55.5487 95.5942 48.4402C94.1327 43.5246 91.1088 39.1927 86.9615 36.0731C86.525 35.7442 86.0643 35.4221 85.5923 35.1151C82.6333 33.1896 79.2855 31.9098 75.7764 31.3628C75.0164 31.2452 74.238 31.1623 73.4633 31.1161C73.161 31.0958 72.8677 31.0828 72.5941 31.0791C72.3734 31.0728 72.1535 31.0691 71.9335 31.0691Z" fill="#1A1B26"/>
<path d="M71.9147 80.3797H71.6845C70.3184 80.3676 68.9555 80.2482 67.6089 80.0227C67.1248 79.9406 66.6381 79.8445 66.1596 79.7368C57.0901 77.6796 49.8389 70.9747 47.2386 62.2385C43.2699 48.9071 51.1189 34.8991 64.7395 31.0118C67.2968 30.2795 69.9551 29.9413 72.6187 30.0095C72.9059 30.0147 73.2158 30.028 73.5344 30.0495C74.3393 30.0972 75.1525 30.1841 75.9472 30.3084C79.6117 30.8805 83.1075 32.2177 86.1974 34.2289C86.6886 34.5496 87.1716 34.8862 87.6277 35.2298C91.9588 38.4877 95.1167 43.0115 96.6433 48.1448C98.8547 55.5687 97.4996 63.4505 92.9251 69.7697C90.3867 73.2749 86.9723 76.0844 83.0083 77.93C82.1745 78.317 81.3202 78.6604 80.4492 78.9586C80.0554 79.0948 79.6287 79.229 79.1462 79.3696C77.8311 79.7445 76.4878 80.0166 75.1287 80.1833C74.0627 80.3149 72.9892 80.3804 71.9147 80.3797V80.3797ZM71.934 31.2045C69.6151 31.2069 67.3083 31.5313 65.0826 32.168C52.1146 35.8697 44.6398 49.2074 48.4207 61.9004C50.8967 70.2191 57.8001 76.6033 66.4351 78.5636C66.8913 78.6657 67.3565 78.7574 67.8171 78.8358C70.1818 79.2315 72.5933 79.2827 74.9734 78.9879C76.267 78.8284 77.5457 78.5687 78.7974 78.2111C79.2565 78.0772 79.6643 77.9489 80.0399 77.8191C80.8703 77.5347 81.6847 77.2074 82.4796 76.8386C86.2529 75.0819 89.503 72.4077 91.9195 69.0714V69.0714C96.2759 63.054 97.5665 55.5487 95.4604 48.4802C94.0077 43.5925 91.0021 39.2848 86.8795 36.1815C86.4457 35.8549 85.9876 35.5342 85.519 35.2287C82.5764 33.3139 79.2474 32.041 75.7579 31.4964C75.0021 31.3795 74.2282 31.297 73.458 31.2512C73.1557 31.2308 72.8662 31.2182 72.5938 31.2142C72.3723 31.2075 72.1531 31.2045 71.9347 31.2045H71.934Z" fill="#1A1B26"/>
<path d="M88.0597 74.0487C72.2204 82.3148 53.2268 72.8459 54.3046 55.477C55.0374 43.6601 67.4241 35.239 78.9746 36.6545C87.3814 37.6846 95.1287 42.2898 97.062 55.497C97.062 55.497 96.9951 61.4729 94.8778 65.207C92.7604 68.9412 90.0573 72.2226 90.0573 72.2226L88.0597 74.0487Z" fill="#1A1B26"/>
<path d="M54.3045 55.4773C53.2275 72.8454 72.2215 82.3144 88.06 74.0494L88.4644 73.6795C72.045 74.5897 57.189 63.2796 57.9437 45.6988C55.8653 48.5072 54.5313 51.8304 54.3045 55.4773Z" fill="#1A1B26"/>
<path d="M75.0807 80.1877L75.032 80.1858C67.9751 79.9539 61.3777 77.0789 56.9306 72.2973C52.6796 67.7236 50.6454 61.8408 51.0512 55.2846C51.425 49.2532 54.4557 43.6361 59.5865 39.4688C65.1699 34.9309 72.6032 32.7232 79.4727 33.5665C83.3272 34.0388 86.7155 35.1377 89.5407 36.8328L89.5951 36.8657L89.6416 36.9086C92.954 39.9777 95.3714 43.855 96.6452 48.1418C98.8566 55.5657 97.5015 63.4475 92.927 69.7667C90.3886 73.2719 86.9742 76.0814 83.0102 77.927C82.1763 78.314 81.3221 78.6574 80.451 78.9556C80.0573 79.0917 79.6306 79.226 79.1481 79.3666C77.833 79.7415 76.4897 80.0136 75.1306 80.1803L75.0807 80.1877ZM76.5455 34.594C70.832 34.594 64.953 36.6722 60.3714 40.3942C55.5063 44.3477 52.6324 49.6619 52.2794 55.3578C51.8943 61.5816 53.8175 67.1588 57.8417 71.4866C62.0557 76.0182 68.316 78.7481 75.0248 78.9804C76.3014 78.8212 77.5634 78.5641 78.7989 78.2115C79.258 78.0776 79.6658 77.9492 80.0414 77.8194C80.8718 77.5351 81.6862 77.2078 82.4811 76.8389C86.2544 75.0822 89.5045 72.408 91.921 69.0717V69.0717C96.2775 63.0544 97.568 55.5491 95.462 48.4806C94.2555 44.4196 91.971 40.7442 88.8412 37.8284C86.1774 36.2421 82.9739 35.2109 79.3181 34.7626C78.3984 34.6502 77.4724 34.5938 76.5455 34.594V34.594Z" fill="#1A1B26"/>
<path d="M75.8939 77.6778C71.3656 77.6778 66.943 76.4816 63.1512 74.0989C56.6562 70.0171 53.2087 63.2164 53.6893 55.4403C54.0234 50.0558 56.7288 45.0416 61.3078 41.3211C66.2896 37.274 72.9221 35.306 79.0498 36.0571C89.7164 37.3639 95.9797 43.8757 97.6696 55.4115L97.6764 55.4573V55.5036C97.6734 55.754 97.5831 61.6759 95.4151 65.4992C93.2962 69.2348 90.6471 72.4649 90.5356 72.6006L90.4767 72.6627L88.4209 74.5431L88.3495 74.5801C84.3853 76.6481 80.095 77.6778 75.8939 77.6778ZM76.4381 37.1035C71.3709 37.1035 66.157 38.9469 62.0938 42.248C57.7812 45.7532 55.2308 50.4642 54.9175 55.5136C54.464 62.8413 57.7068 69.2463 63.8159 73.0851C70.7315 77.4303 79.8766 77.6075 87.6991 73.5545L89.6034 71.8124C89.8864 71.4644 92.3828 68.3634 94.3388 64.9148C96.2612 61.525 96.4324 56.0817 96.4445 55.5346C94.8342 44.6325 88.9303 38.4812 78.8971 37.2518C78.0814 37.1525 77.2601 37.1029 76.4381 37.1035V37.1035Z" fill="#1A1B26"/>
<path d="M56.2228 55.364C56.86 50.5493 54.4788 46.2789 50.9042 45.8257C47.3297 45.3726 43.9155 48.9083 43.2783 53.723C42.6412 58.5377 45.0224 62.8081 48.5969 63.2613C52.1714 63.7144 55.5857 60.1787 56.2228 55.364Z" fill="#C0CAF5"/>
<path d="M56.1753 55.687C56.1601 55.7876 56.1416 55.8886 56.1231 55.9896C55.2294 60.7608 51.6533 63.9787 48.1343 63.1794C45.2842 62.5336 43.3456 59.4489 43.1861 55.7651C43.1481 54.8717 43.2126 53.9769 43.3785 53.0976C44.2703 48.3285 47.8479 45.1085 51.3673 45.9078C54.8126 46.6889 56.9243 51.0308 56.1753 55.687Z" fill="#C0CAF5"/>
<g opacity="0.35">
<path d="M56.1752 55.6871C56.1601 55.7877 56.1416 55.8886 56.123 55.9896C55.2293 60.7609 51.6532 63.9787 48.1342 63.1794C45.2841 62.5336 43.3455 59.449 43.186 55.7651L49.9814 52.47C49.9814 52.47 50.8056 56.4087 53.1066 56.7874C54.6417 57.0374 55.665 56.2422 56.1752 55.6871Z" fill="#1A1B26"/>
</g>
<path d="M49.2245 63.9051C48.8102 63.905 48.3972 63.8585 47.9937 63.7664C44.1656 62.8976 41.823 58.0627 42.773 52.9889C43.3255 50.037 44.8552 47.5648 46.9677 46.2066C48.409 45.282 49.9773 44.9742 51.5044 45.3208C55.3336 46.19 57.6762 51.0245 56.7262 56.0983C56.1752 59.0506 54.6447 61.5224 52.5315 62.8813C51.4753 63.5593 50.351 63.9051 49.2245 63.9051ZM43.9834 53.206C43.1502 57.6566 45.0744 61.8675 48.2726 62.5932C49.4637 62.8632 50.7032 62.6146 51.8562 61.8741C53.6637 60.7128 55.0328 58.4714 55.5177 55.8823C56.349 51.4321 54.4267 47.2212 51.2285 46.4951C50.037 46.2251 48.7979 46.4733 47.6449 47.2145C45.8374 48.3755 44.4683 50.6173 43.9834 53.2063V53.206Z" fill="#1A1B26"/>
<path d="M52.8417 55.3865C53.2135 51.5505 51.1448 48.2208 48.221 47.9493C45.2972 47.6778 42.6255 50.5673 42.2536 54.4032C41.8818 58.2392 43.9505 61.5689 46.8743 61.8404C49.7982 62.1119 52.4698 59.2224 52.8417 55.3865Z" fill="#C0CAF5"/>
<path d="M47.2378 61.923C46.4616 61.923 45.704 61.7011 45.0011 61.2635C43.5318 60.3477 42.5217 58.6134 42.2299 56.5052C41.7092 52.7396 43.6659 48.9503 46.5913 48.0575C47.8005 47.6876 49.0125 47.8496 50.094 48.5235C51.5633 49.4393 52.5734 51.1736 52.8651 53.2818C53.3855 57.0474 51.4291 60.8367 48.5038 61.7295C48.0942 61.8563 47.6674 61.9215 47.2378 61.923V61.923ZM47.8561 47.9901C47.44 47.9914 47.0265 48.0547 46.6298 48.1777C43.7612 49.0528 41.8448 52.781 42.3595 56.4882C42.646 58.5594 43.6346 60.2608 45.0721 61.1574C46.1208 61.8109 47.2945 61.9674 48.4672 61.6093C51.3354 60.7339 53.2521 57.006 52.7374 53.2988C52.451 51.2276 51.4624 49.5262 50.0249 48.6296C49.342 48.2047 48.6077 47.9901 47.855 47.9901H47.8561Z" fill="#1A1B26"/>
<g opacity="0.35">
<path d="M51.9434 58.6867C52.5031 57.4835 52.728 56.1261 52.6539 54.8001C51.1423 57.4376 48.3107 58.1171 46.1094 56.2725C44.6866 55.0812 43.8549 53.1087 43.7411 51.0574C43.6448 51.2231 43.5548 51.3996 43.4694 51.5815C42.0451 54.6455 42.7892 58.7199 45.1276 60.6802C47.4661 62.6405 50.5191 61.7484 51.9434 58.6867Z" fill="#1A1B26"/>
</g>
<path d="M47.0489 62.45C46.7355 62.4498 46.4233 62.4134 46.1186 62.3417C43.1588 61.6456 41.3755 57.6662 42.1434 53.4741C42.6018 50.9694 43.8942 48.8227 45.6005 47.7312C46.6843 47.0381 47.8554 46.8121 48.9864 47.078C51.9465 47.7741 53.7298 51.752 52.9619 55.9456C52.5035 58.4503 51.2111 60.597 49.5053 61.6885C48.7162 62.193 47.8803 62.45 47.0489 62.45ZM48.0632 48.1754C47.4661 48.1754 46.8573 48.3659 46.2735 48.7395C44.8458 49.6527 43.7548 51.502 43.3546 53.6864C42.6997 57.2638 44.0688 60.621 46.4065 61.1707C47.2001 61.3556 48.0387 61.1877 48.8319 60.6802C50.2611 59.767 51.3509 57.9177 51.7508 55.7333C52.4057 52.1559 51.0369 48.7987 48.6992 48.249C48.4909 48.2003 48.2774 48.1755 48.0632 48.1754Z" fill="#1A1B26"/>
<g opacity="0.7">
<path d="M72.7888 40.5606C72.7888 40.5606 83.4679 42.552 88.6134 49.3442C88.6187 49.3512 88.6243 49.3583 88.6296 49.3657C89.7094 50.7981 90.38 52.4862 90.5724 54.2564C90.8297 56.5958 90.657 58.245 90.4477 59.6912C89.8087 64.0893 88.6689 66.0329 88.6689 66.0329C91.5621 64.0649 93.3855 61.6271 93.9546 57.9699C94.0098 57.6094 94.0532 57.236 94.085 56.8499C94.0925 56.7611 94.0982 56.6731 94.1023 56.5843C94.1046 56.5843 94.1023 56.5817 94.1023 56.5788C94.113 55.5842 94.0625 54.59 93.9512 53.6014C93.5578 50.0995 92.2378 45.4192 88.2045 42.7713C80.6631 37.8188 72.4854 40.0499 72.7888 40.5606Z" fill="#C0CAF5"/>
</g>
<g opacity="0.7">
<path d="M65.9005 51.3789C66.6943 49.5548 66.0413 47.5357 64.442 46.869C62.8427 46.2023 60.9027 47.1405 60.1089 48.9646C59.3151 50.7887 59.9681 52.8079 61.5674 53.4746C63.1667 54.1413 65.1067 53.203 65.9005 51.3789Z" fill="#C0CAF5"/>
</g>
<g opacity="0.7">
<path d="M61.349 57.3313C61.7405 56.6078 61.5438 55.7547 60.9095 55.4259C60.2752 55.0971 59.4437 55.417 59.0521 56.1405C58.6606 56.864 58.8573 57.7171 59.4916 58.0459C60.1258 58.3747 60.9574 58.0548 61.349 57.3313Z" fill="#C0CAF5"/>
</g>
<g opacity="0.2">
<path d="M121.302 89.9107L114.386 114.211L75.7365 118.563L76.4749 115.97L110.454 112.145C111.134 112.068 111.776 111.795 112.297 111.359C112.818 110.924 113.195 110.346 113.379 109.7L119.676 87.5843C119.709 87.4696 119.732 87.3523 119.745 87.2336C120.883 87.5303 121.646 88.7013 121.302 89.9107Z" fill="#1A1B26"/>
</g>
<g opacity="0.2">
<path d="M75.7232 118.699L74.4342 120.802L76.5274 121.399L111.115 117.631L113.057 116.393L113.62 114.342L75.7232 118.699Z" fill="#1A1B26"/>
</g>
<path d="M51.6173 110.147V110.638C51.6174 111.268 51.8129 111.884 52.178 112.403C52.5431 112.922 53.0606 113.321 53.6621 113.546L72.3424 120.546C74.8154 121.323 77.4819 121.575 80.1192 121.278L109.818 117.934C112.577 117.623 114.569 115.407 114.239 113.015L90.4578 105.773L51.6173 110.147Z" fill="#F7768E"/>
<g opacity="0.35">
<path d="M109.818 117.934L80.1185 121.277C77.4789 121.573 74.8132 121.324 72.3417 120.546L53.6622 113.547C53.0611 113.321 52.5442 112.922 52.1795 112.403C51.8149 111.883 51.6197 111.268 51.6196 110.638V110.147L51.7511 110.133C51.8897 110.591 52.1342 111.011 52.4656 111.361C52.797 111.711 53.2065 111.982 53.6622 112.153L72.3436 119.154C74.8151 119.931 77.4808 120.183 80.1204 119.885L109.818 116.54C112.035 116.291 113.758 114.812 114.176 112.996L114.24 113.015C114.569 115.407 112.577 117.624 109.818 117.934Z" fill="#1A1B26"/>
</g>
<path d="M114.47 114.238L75.6294 118.613L51.6162 110.147L54.2022 109.857L90.4593 105.774L102.192 109.909L114.47 114.238Z" fill="#7AA2F7"/>
<g opacity="0.6">
<path d="M114.47 114.238L75.6294 118.613L51.6162 110.147L54.2022 109.857L90.4593 105.774L102.192 109.909L114.47 114.238Z" fill="#C0CAF5"/>
</g>
<g opacity="0.2">
<path d="M114.471 114.238L75.6294 118.613L51.6162 110.147L54.2022 109.856C62.7208 111.743 83.9515 115.385 102.192 109.909L114.471 114.238Z" fill="#1A1B26"/>
</g>
<path d="M75.6291 119.214C75.5579 119.213 75.4873 119.201 75.4205 119.177L51.4088 110.712C51.2782 110.666 51.1674 110.578 51.0943 110.462C51.0212 110.347 50.9902 110.21 51.0062 110.076C51.0222 109.941 51.0844 109.815 51.1826 109.719C51.2808 109.623 51.4092 109.562 51.5471 109.547L90.3883 105.174C90.4825 105.163 90.578 105.174 90.6672 105.205L114.679 113.67C114.809 113.716 114.92 113.804 114.993 113.919C115.067 114.035 115.098 114.171 115.082 114.306C115.066 114.441 115.004 114.567 114.905 114.663C114.807 114.759 114.679 114.819 114.541 114.835L75.6994 119.21C75.6761 119.212 75.6526 119.214 75.6291 119.214V119.214ZM54.2963 110.451L75.702 117.996L111.791 113.933L90.3861 106.388L54.2963 110.451Z" fill="#1A1B26"/>
<path d="M77.9732 122C75.9985 122.003 74.0352 121.706 72.1536 121.12L72.1218 121.109L53.4412 114.108C52.7252 113.836 52.1095 113.36 51.6744 112.741C51.2393 112.122 51.005 111.389 51.0022 110.638V110.146C51.0022 109.999 51.0576 109.856 51.1578 109.746C51.2581 109.636 51.3962 109.565 51.546 109.548L90.3872 105.175C90.4724 105.166 90.5586 105.173 90.6404 105.198L114.422 112.44C114.534 112.474 114.634 112.539 114.709 112.626C114.785 112.714 114.833 112.821 114.849 112.935C115.017 114.155 114.663 115.391 113.852 116.412C112.923 117.58 111.478 118.353 109.887 118.532L80.1885 121.875C79.4531 121.958 78.7135 122 77.9732 122V122ZM72.5455 119.978C74.9194 120.723 77.513 120.964 80.0479 120.681L109.748 117.337C111.012 117.194 112.155 116.588 112.882 115.673C113.404 115.015 113.676 114.245 113.66 113.469L90.4001 106.387L52.2323 110.684C52.2435 111.184 52.4061 111.67 52.6995 112.079C52.9929 112.488 53.4038 112.803 53.8803 112.984L72.5455 119.978Z" fill="#1A1B26"/>
<path d="M121.303 89.947L114.385 114.247L98.5592 116.031L93.1405 116.641L90.1952 116.973L84.5917 117.606L75.7352 118.602L83.1383 92.6011C83.2561 92.1859 83.4977 91.8145 83.8323 91.5343C84.1668 91.2541 84.5791 91.0779 85.0164 91.0281L115.019 87.6497L117.884 87.3261L118.916 87.2103C119.342 87.1612 119.774 87.235 120.158 87.4226C120.62 87.6458 120.988 88.0203 121.197 88.4812C121.406 88.9421 121.444 89.4602 121.303 89.9455V89.947Z" fill="#7AA2F7"/>
<path d="M103.764 102.473C103.64 102.562 103.491 102.614 103.337 102.621C103.183 102.627 103.03 102.59 102.898 102.512C102.765 102.434 102.66 102.32 102.594 102.183C102.528 102.047 102.504 101.894 102.526 101.745C102.549 101.595 102.615 101.456 102.718 101.343C102.821 101.231 102.956 101.151 103.105 101.113C103.255 101.075 103.412 101.082 103.558 101.131C103.704 101.181 103.831 101.271 103.925 101.391C103.987 101.473 104.032 101.565 104.058 101.664C104.083 101.762 104.089 101.864 104.074 101.965C104.059 102.065 104.024 102.162 103.971 102.249C103.918 102.337 103.847 102.413 103.764 102.473V102.473Z" fill="#7AA2F7"/>
<path d="M75.7356 119.202C75.6407 119.202 75.5471 119.18 75.4622 119.139C75.3772 119.098 75.3031 119.038 75.2457 118.964C75.1884 118.89 75.1492 118.804 75.1314 118.713C75.1136 118.622 75.1176 118.528 75.1431 118.438L82.5442 92.4391C82.6937 91.9078 83.0025 91.4325 83.4307 91.0745C83.8589 90.7166 84.3869 90.4925 84.9465 90.4311L118.847 86.6141C119.307 86.5622 119.774 86.622 120.206 86.7881C120.637 86.9542 121.021 87.2217 121.322 87.5669C121.623 87.912 121.833 88.3244 121.933 88.7676C122.033 89.2108 122.02 89.6713 121.896 90.1086L114.978 114.409C114.945 114.524 114.878 114.627 114.785 114.705C114.692 114.783 114.577 114.832 114.456 114.845L75.807 119.198C75.7833 119.201 75.7595 119.202 75.7356 119.202V119.202ZM119.178 87.8003C119.114 87.8002 119.051 87.8037 118.987 87.8106L85.0871 91.6276C84.7709 91.6625 84.4726 91.7893 84.2307 91.9916C83.9887 92.1939 83.8143 92.4625 83.7297 92.7627L76.5738 117.9L113.903 113.696L120.71 89.7857C120.776 89.5538 120.787 89.3102 120.741 89.0737C120.695 88.8372 120.594 88.6143 120.446 88.4222C120.298 88.2301 120.106 88.0741 119.886 87.9662C119.666 87.8583 119.424 87.8015 119.178 87.8003V87.8003Z" fill="#1A1B26"/>
<path d="M47.7473 81.0103C47.7473 81.0103 48.7533 91.324 54.2355 98.1062C59.5824 104.72 65.3801 104.989 65.3801 104.989C65.3801 104.989 67.2492 108.885 69.7082 109.699C72.1913 110.52 76.8935 109.4 77.9052 105.538C78.9746 101.456 77.943 95.4894 74.5763 94.7567C71.2096 94.024 58.4419 90.4148 57.8712 78.4282" fill="#C0CAF5"/>
<g opacity="0.35">
<path d="M77.9052 105.538C76.8939 109.4 72.1925 110.521 69.7074 109.698C67.2488 108.884 65.3809 104.989 65.3809 104.989C65.3809 104.989 59.5824 104.72 54.2362 98.1062C50.6768 93.7025 49.0035 87.8102 48.2681 84.2177C49.2351 87.4688 50.8057 91.301 53.307 94.3964C58.655 101.01 64.455 101.279 64.455 101.279C64.455 101.279 66.323 105.175 68.7816 105.988C71.2647 106.809 75.9681 105.692 76.9793 101.827C77.3429 100.437 77.4646 98.8274 77.3312 97.2806C78.4146 99.5694 78.5862 102.938 77.9052 105.538Z" fill="#1A1B26"/>
</g>
<path d="M47.9518 80.991C48.7208 83.5254 49.2744 86.0656 50.0854 88.5433L50.3832 89.4724L50.7108 90.3908C50.9167 91.0089 51.1854 91.6006 51.4288 92.2031C51.5558 92.5024 51.7035 92.7912 51.84 93.086L52.0482 93.5258L52.1532 93.7455L52.2711 93.9585C52.5905 94.5222 52.8807 95.1051 53.2454 95.6399L53.7676 96.4581L54.3469 97.2348C54.7154 97.7652 55.164 98.2394 55.5819 98.735C55.6843 98.8611 55.8007 98.9743 55.9141 99.09L56.2542 99.4373C56.4809 99.6689 56.7039 99.9049 56.9514 100.115L57.6766 100.762L58.44 101.363C59.4762 102.14 60.5887 102.815 61.7677 103.343C62.3543 103.609 62.959 103.834 63.5775 104.017L64.0404 104.145L64.5064 104.252C64.6617 104.28 64.8178 104.312 64.9716 104.335C65.1254 104.358 65.2905 104.379 65.408 104.387L65.7765 104.411L65.936 104.733C66.1775 105.211 66.4456 105.676 66.739 106.126C67.03 106.577 67.3493 107.01 67.6951 107.423C68.0314 107.822 68.4062 108.188 68.8144 108.517L69.1213 108.737C69.2252 108.805 69.3333 108.858 69.4387 108.921C69.5426 108.991 69.6549 109.019 69.7622 109.069C69.8174 109.091 69.8688 109.117 69.9262 109.136L70.1008 109.188C71.0607 109.437 72.1607 109.387 73.1731 109.13C74.1935 108.874 75.1503 108.394 75.8997 107.712C76.2704 107.371 76.5868 106.978 76.838 106.545C76.9604 106.328 77.0657 106.101 77.1528 105.869C77.1985 105.752 77.2379 105.634 77.2707 105.514C77.3085 105.398 77.3376 105.265 77.3693 105.137C77.6112 104.104 77.7094 103.025 77.6894 101.954C77.6694 100.882 77.5284 99.8083 77.2359 98.7934C76.9472 97.7833 76.4915 96.8095 75.8044 96.1189C75.459 95.7827 75.0622 95.5223 74.6231 95.3962L74.458 95.3511L74.249 95.303L73.8224 95.2024C73.5385 95.1329 73.2555 95.06 72.9759 94.9805C71.8538 94.6693 70.7509 94.2952 69.6726 93.8601C67.5186 92.9843 65.4519 91.8651 63.6115 90.4234C62.6878 89.702 61.8365 88.8961 61.069 88.0166C60.3009 87.1298 59.6276 86.1684 59.0597 85.1472C58.4872 84.1282 58.0092 83.039 57.77 81.8965C57.516 80.7599 57.4465 79.5826 57.6664 78.439C57.6752 78.3938 57.699 78.3529 57.7343 78.3225C57.7695 78.2922 57.8141 78.2742 57.8609 78.2714C57.9078 78.2687 57.9542 78.2813 57.9929 78.3073C58.0316 78.3333 58.0603 78.3711 58.0745 78.4149V78.4205C58.4252 79.5094 58.6792 80.5542 58.9902 81.5843C59.079 81.8384 59.1584 82.0943 59.2388 82.3499C59.3371 82.5992 59.4278 82.8511 59.5196 83.1026C59.7203 83.599 59.9221 84.0968 60.1738 84.5724C60.6747 85.5285 61.2895 86.4232 62.0054 87.2377C62.7231 88.0588 63.519 88.811 64.3824 89.4843C66.1117 90.8398 68.0809 91.9087 70.1439 92.7476C71.1782 93.165 72.2362 93.5238 73.3126 93.8224C73.5813 93.8964 73.8511 93.9674 74.1216 94.034L74.5275 94.1294L74.7357 94.1775L74.9833 94.2441C75.6431 94.4345 76.2224 94.8214 76.6815 95.2727C77.593 96.1973 78.0922 97.3369 78.4199 98.4664C78.7449 99.6049 78.8934 100.768 78.9176 101.931C78.9448 103.1 78.8268 104.267 78.5661 105.408C78.531 105.552 78.5004 105.692 78.4528 105.843C78.4116 105.993 78.3627 106.141 78.3061 106.287C78.1967 106.579 78.0644 106.862 77.9105 107.135C77.5974 107.676 77.2024 108.168 76.739 108.594C75.812 109.437 74.6707 109.999 73.4796 110.298C72.8815 110.451 72.2677 110.537 71.6498 110.555C71.0174 110.576 70.3852 110.508 69.7728 110.352L69.5377 110.282C69.4599 110.257 69.3828 110.222 69.3049 110.191C69.1538 110.125 68.9883 110.071 68.8515 109.985C68.7116 109.905 68.5658 109.829 68.4328 109.741L68.0481 109.466C67.5725 109.085 67.136 108.66 66.7447 108.197C66.3657 107.745 66.0157 107.27 65.6968 106.776C65.3751 106.283 65.0818 105.773 64.8185 105.249L65.3476 105.594C65.1288 105.58 64.9644 105.557 64.7807 105.529C64.5971 105.501 64.4274 105.467 64.2517 105.434L63.7332 105.316L63.2238 105.175C62.5518 104.975 61.895 104.729 61.258 104.439C59.9844 103.869 58.7933 103.145 57.6895 102.317L56.8774 101.678L56.1083 100.992C55.8461 100.77 55.6106 100.52 55.3707 100.275L55.0113 99.9086C54.8915 99.7861 54.7691 99.6663 54.661 99.5343C54.2203 99.0131 53.7517 98.5153 53.3591 97.9538L52.7477 97.1309L52.1978 96.2709C50.7486 93.9667 49.6659 91.4793 48.8179 88.9317C48.4036 87.6554 48.0754 86.3539 47.8354 85.0355C47.77 84.7074 47.722 84.3757 47.6797 84.0439C47.629 83.7136 47.5995 83.3782 47.5716 83.0453C47.5198 82.3766 47.4915 81.7093 47.544 81.0284C47.5477 80.981 47.5682 80.9363 47.602 80.9021C47.6358 80.8679 47.6808 80.8464 47.7291 80.8413C47.7774 80.8361 47.8261 80.8477 47.8666 80.874C47.9071 80.9003 47.937 80.9396 47.951 80.9851L47.9518 80.991Z" fill="#1A1B26"/>
<path d="M65.3805 105.52C65.2699 105.52 65.1619 105.487 65.071 105.425C64.9801 105.364 64.9106 105.276 64.8719 105.175C64.2631 103.585 63.4884 103.659 63.4566 103.663L63.4759 103.659L63.2567 102.618C63.3251 102.605 64.935 102.311 65.8888 104.802C65.9195 104.882 65.9299 104.969 65.9191 105.054C65.9083 105.139 65.8765 105.221 65.8266 105.291C65.7766 105.362 65.71 105.419 65.6323 105.459C65.5546 105.499 65.4682 105.52 65.3805 105.52V105.52Z" fill="#1A1B26"/>
<path d="M43.6075 110.269C43.6075 110.269 43.2258 104.428 44.6512 101.935C47.0399 97.7556 52.227 98.9891 54.005 99.7436C56.5539 100.825 48.6082 118.106 48.6082 118.106" fill="#C0CAF5"/>
<path d="M41.6919 107.968C41.7507 107.183 41.8618 106.403 42.0244 105.633C42.1824 104.857 42.3899 104.092 42.6457 103.342C42.7727 102.964 42.9167 102.59 43.0833 102.222C43.168 102.037 43.2466 101.852 43.3441 101.671C43.4416 101.49 43.5277 101.307 43.6422 101.124C44.0932 100.385 44.7106 99.7564 45.4475 99.2865C46.1859 98.8175 47.0225 98.5279 47.8619 98.3821C48.7012 98.2364 49.5514 98.2194 50.3817 98.2852C51.2088 98.3546 52.0274 98.5 52.8267 98.7194C53.229 98.8279 53.6255 98.9564 54.0144 99.1045L54.1626 99.1629L54.2381 99.1936C54.2672 99.2058 54.3243 99.2336 54.3651 99.2546C54.5311 99.3486 54.6732 99.4781 54.7808 99.6334C54.9739 99.9174 55.0359 100.182 55.0782 100.42C55.1538 100.899 55.1262 101.321 55.088 101.736C55.0499 102.151 54.9792 102.55 54.901 102.943C54.7404 103.729 54.5325 104.493 54.3084 105.249C53.8572 106.759 53.3331 108.236 52.7817 109.7C52.2304 111.164 51.6397 112.61 51.0237 114.046C50.4078 115.481 49.7789 116.908 49.1055 118.325C49.0442 118.449 48.9357 118.545 48.8032 118.593C48.6707 118.64 48.5245 118.635 48.3955 118.579C48.2666 118.523 48.1649 118.42 48.1122 118.292C48.0594 118.164 48.0596 118.021 48.1128 117.893L48.115 117.888C48.731 116.471 49.3394 115.04 49.929 113.607C50.5185 112.173 51.0804 110.729 51.6276 109.283C52.1748 107.837 52.6797 106.378 53.1147 104.911C53.3312 104.177 53.5281 103.439 53.6785 102.705C53.7541 102.338 53.8191 101.972 53.8584 101.613C53.8977 101.255 53.912 100.898 53.8678 100.608C53.8565 100.503 53.8244 100.401 53.7733 100.307C53.7593 100.287 53.7571 100.288 53.7616 100.289L53.5659 100.209C53.217 100.073 52.8613 99.9552 52.5002 99.8553C51.7735 99.6517 51.0296 99.5123 50.2774 99.4388C49.5303 99.3697 48.7801 99.3763 48.0591 99.4928C47.3381 99.6093 46.6492 99.8416 46.051 100.211C45.4496 100.584 44.9434 101.086 44.5711 101.68C44.4781 101.828 44.3882 101.991 44.2979 102.153C44.2076 102.315 44.1248 102.482 44.0405 102.649C43.8769 102.985 43.7246 103.331 43.5757 103.68C42.9922 105.082 42.5195 106.554 42.0539 108.029V108.033C42.0405 108.075 42.0117 108.111 41.9729 108.134C41.9341 108.157 41.8881 108.165 41.8435 108.157C41.799 108.149 41.759 108.125 41.7313 108.09C41.7035 108.055 41.6899 108.011 41.693 107.967L41.6919 107.968Z" fill="#1A1B26"/>
<path d="M47.2084 120.968C47.2084 120.968 45.2078 120.757 44.3039 117.831C43.3999 114.906 44.9463 111.398 45.2928 108.058C45.8812 102.406 48.1093 99.2657 53.0643 99.5797C57.8731 99.8845 56.6045 106.75 55.7542 110.189C54.4935 115.285 52.6108 121.278 47.2084 120.968Z" fill="#C0CAF5"/>
<g opacity="0.35">
<path d="M55.2115 112.254C53.932 116.767 51.894 121.237 47.2088 120.968C47.2088 120.968 45.2093 120.757 44.305 117.832C43.559 115.42 44.4788 112.612 45.0185 109.829C44.9429 110.886 45.0018 111.905 45.3 112.868C46.3045 116.116 48.5254 116.351 48.5254 116.351C51.6763 116.531 53.7498 114.779 55.2115 112.254Z" fill="#1A1B26"/>
</g>
<path d="M44.0393 116.808C43.9118 116.808 43.7894 116.759 43.699 116.671C43.6086 116.583 43.5575 116.463 43.5571 116.339C43.5567 116.214 43.607 116.094 43.6969 116.006C43.7867 115.917 43.9088 115.867 44.0363 115.867L53.754 115.802C53.8815 115.801 54.0041 115.85 54.0949 115.937C54.1857 116.025 54.2372 116.144 54.2381 116.269C54.239 116.394 54.1892 116.514 54.0997 116.603C54.0102 116.692 53.8883 116.742 53.7608 116.743L44.0427 116.808H44.0393Z" fill="#1A1B26"/>
<path d="M44.4762 112.839C44.3487 112.839 44.2263 112.79 44.1359 112.702C44.0454 112.614 43.9944 112.495 43.994 112.37C43.9936 112.245 44.0439 112.125 44.1337 112.037C44.2236 111.948 44.3457 111.898 44.4732 111.898L55.1938 111.829H55.1972C55.2603 111.829 55.3229 111.841 55.3813 111.864C55.4397 111.888 55.4928 111.922 55.5376 111.966C55.5823 112.009 55.6179 112.061 55.6423 112.118C55.6666 112.175 55.6792 112.236 55.6794 112.298C55.6796 112.36 55.6674 112.421 55.6434 112.478C55.6194 112.535 55.5842 112.587 55.5397 112.631C55.4952 112.675 55.4423 112.71 55.3841 112.733C55.3258 112.757 55.2634 112.77 55.2002 112.77L44.4792 112.839H44.4762Z" fill="#1A1B26"/>
<path d="M45.2653 108.77C45.1378 108.77 45.0154 108.721 44.9249 108.633C44.8345 108.545 44.7835 108.426 44.7831 108.301C44.7827 108.176 44.8329 108.056 44.9228 107.968C45.0127 107.879 45.1348 107.829 45.2623 107.829L56.1813 107.757H56.1847C56.3122 107.756 56.4346 107.806 56.525 107.893C56.6154 107.981 56.6665 108.101 56.6669 108.226C56.6673 108.35 56.617 108.47 56.5272 108.559C56.4373 108.647 56.3152 108.697 56.1877 108.698L45.2687 108.77H45.2653Z" fill="#1A1B26"/>
<path d="M46.1945 104.398C46.1314 104.398 46.0688 104.387 46.0104 104.363C45.952 104.34 45.8989 104.305 45.8541 104.262C45.8094 104.218 45.7738 104.166 45.7495 104.109C45.7251 104.052 45.7125 103.991 45.7123 103.929C45.7121 103.868 45.7243 103.806 45.7483 103.749C45.7723 103.692 45.8075 103.64 45.852 103.596C45.8965 103.552 45.9494 103.518 46.0076 103.494C46.0659 103.47 46.1283 103.458 46.1915 103.457L56.538 103.39C56.6021 103.388 56.6661 103.398 56.7261 103.42C56.7861 103.443 56.8409 103.477 56.8872 103.52C56.9335 103.564 56.9705 103.616 56.9959 103.674C57.0213 103.732 57.0346 103.794 57.0351 103.857C57.0355 103.919 57.0231 103.982 56.9986 104.04C56.974 104.098 56.9378 104.151 56.8921 104.195C56.8464 104.239 56.7921 104.274 56.7324 104.297C56.6728 104.32 56.609 104.332 56.5448 104.33L46.1979 104.398H46.1945Z" fill="#1A1B26"/>
<g opacity="0.7">
<path d="M55.7629 110.154C56.403 106.597 56.5243 101.983 52.6006 101.733C48.6894 101.486 46.476 103.392 45.4285 106.985C46.182 102.009 48.4324 99.2846 53.062 99.5783C57.8568 99.8827 56.612 106.705 55.7629 110.154Z" fill="#C0CAF5"/>
</g>
<path d="M45.4285 106.987C45.3764 107.333 45.3318 107.691 45.2932 108.059C45.1515 109.417 44.8118 110.802 44.5197 112.165C44.6504 111.51 44.7626 110.858 44.8303 110.21C44.9531 109.022 45.15 107.944 45.4285 106.987Z" fill="#C0CAF5"/>
<g opacity="0.35">
<path d="M45.9792 104.546C45.7823 105.492 45.5593 106.436 45.3745 107.366C45.5132 106.332 45.7116 105.39 45.9792 104.546Z" fill="#1A1B26"/>
</g>
<g opacity="0.35">
<path d="M45.3763 107.366C45.3453 107.592 45.3178 107.824 45.2932 108.059C45.2316 108.646 45.1348 109.237 45.0177 109.829C45.0748 109.025 45.2101 108.202 45.3763 107.366Z" fill="#1A1B26"/>
</g>
<path d="M47.606 121.581C47.4639 121.581 47.3194 121.577 47.1725 121.569L47.1427 121.566C47.0444 121.556 44.7241 121.275 43.7148 118.006C43.0663 115.907 43.5814 113.565 44.0794 111.3C44.3198 110.207 44.5684 109.077 44.6811 107.997C45.3454 101.611 48.1003 98.6606 53.104 98.9791C54.4014 99.0612 55.4115 99.5708 56.1068 100.496C57.4624 102.299 57.5429 105.515 56.3521 110.329C55.373 114.29 53.5692 121.581 47.606 121.581ZM47.2659 120.368C52.1204 120.631 53.8867 115.178 55.1557 110.048C56.5067 104.586 55.8793 102.228 55.1152 101.212C54.6387 100.578 53.9547 100.241 53.0239 100.182C48.7023 99.9085 46.5044 102.356 45.9047 108.121C45.7853 109.267 45.5294 110.43 45.2819 111.555C44.7952 113.768 44.3372 115.858 44.8923 117.658C45.6296 120.041 47.1431 120.347 47.2663 120.368H47.2659Z" fill="#1A1B26"/>
<path d="M47.6029 121.449C47.4639 121.449 47.3237 121.445 47.1801 121.437H47.157C47.0622 121.427 44.8288 121.156 43.8436 117.969C43.2049 115.903 43.7162 113.578 44.2109 111.33C44.452 110.233 44.7022 109.1 44.8155 108.012C45.4712 101.711 48.1788 98.7982 53.0961 99.1118C54.3518 99.1914 55.3283 99.684 55.9991 100.576C57.3112 102.321 57.386 105.593 56.2221 110.301C55.2493 114.223 53.4634 121.449 47.6029 121.449ZM47.2545 120.499C52.2159 120.773 54.0049 115.263 55.2868 110.078C56.6498 104.567 56.0048 102.171 55.224 101.132C54.7225 100.466 54.0061 100.111 53.0322 100.049C48.6803 99.7724 46.371 102.333 45.7705 108.105C45.6518 109.245 45.3968 110.405 45.15 111.526C44.6587 113.756 44.1962 115.862 44.763 117.695C45.5313 120.178 47.0981 120.475 47.2545 120.499V120.499Z" fill="#1A1B26"/>
<path d="M39.514 112.181C39.8565 112.366 40.1798 112.583 40.4791 112.829C40.7803 113.075 41.0621 113.343 41.3222 113.631C41.5904 113.918 41.8278 114.231 42.0308 114.566C42.2396 114.903 42.3965 115.269 42.4964 115.652C42.5249 115.763 42.5115 115.88 42.4586 115.982C42.4058 116.083 42.3171 116.163 42.2089 116.206C42.1007 116.249 41.9803 116.251 41.8701 116.214C41.7598 116.177 41.6671 116.102 41.6091 116.003L41.5936 115.976C41.4178 115.674 41.2829 115.363 41.1163 115.056C40.9496 114.749 40.7992 114.433 40.6182 114.125C40.2645 113.506 39.8582 112.897 39.4252 112.284L39.4233 112.281C39.4127 112.266 39.4087 112.248 39.412 112.23C39.4154 112.212 39.4258 112.196 39.441 112.185C39.4516 112.178 39.4641 112.174 39.4769 112.173C39.4898 112.173 39.5026 112.175 39.514 112.181V112.181Z" fill="#1A1B26"/>
<path d="M72.9063 89.3359C72.8828 89.6096 72.2982 91.7866 72.2982 91.7866L70.7054 91.6568C69.6095 91.5658 68.8159 90.38 68.9334 89.0086C69.0509 87.6371 70.0376 86.5985 71.1347 86.6895L72.7283 86.8216C72.7283 86.8216 72.9448 88.8898 72.9063 89.3359Z" fill="#F7768E"/>
<g opacity="0.35">
<path d="M72.9059 89.3359C72.8829 89.6096 72.299 91.787 72.299 91.787L70.7054 91.6568C69.6069 91.5651 68.8159 90.3804 68.9327 89.0075C68.9589 88.6952 69.0331 88.3885 69.153 88.098C69.4077 88.9398 70.0328 89.5564 70.812 89.6189L72.4056 89.7509C72.4056 89.7509 72.6637 88.7852 72.8447 88.0595C72.8878 88.5869 72.9241 89.1314 72.9059 89.3359Z" fill="#1A1B26"/>
</g>
<path d="M71.8622 92.2002C71.8327 92.2002 71.8028 92.2002 71.773 92.1965L70.6661 92.1047C69.9908 92.0489 69.3911 91.6772 68.9769 91.0584C68.5862 90.4744 68.4074 89.732 68.4732 88.9686C68.5389 88.2052 68.8431 87.5029 69.3287 86.9913C69.8431 86.4491 70.5002 86.1817 71.1733 86.2376L72.2862 86.3297C72.5294 86.3497 72.7576 86.4529 72.931 86.621C73.1043 86.7892 73.2117 87.0117 73.2343 87.2495C73.3447 88.3961 73.3889 89.1103 73.3662 89.374C73.3602 89.445 73.3435 89.6329 72.8681 91.4371C72.8109 91.6556 72.6809 91.8492 72.4988 91.9874C72.3166 92.1255 72.0926 92.2004 71.8622 92.2002V92.2002ZM71.0013 87.133C70.6469 87.133 70.2962 87.2987 70.0048 87.6053C69.659 87.97 69.4414 88.4808 69.393 89.0441C69.3446 89.6074 69.4708 90.1467 69.749 90.5628C70.0044 90.9445 70.3578 91.1719 70.744 91.2041L71.8505 91.2958C71.8782 91.2985 71.9059 91.2914 71.9287 91.2757C71.9514 91.26 71.9677 91.2368 71.9744 91.2104C72.3039 89.9614 72.4347 89.3981 72.4468 89.2956C72.4532 89.2183 72.4619 88.8518 72.3157 87.3331C72.313 87.3062 72.3008 87.2811 72.2812 87.2621C72.2616 87.2431 72.2358 87.2315 72.2083 87.2292L71.0954 87.1371C71.0641 87.1352 71.0327 87.1337 71.0013 87.1337V87.133Z" fill="#1A1B26"/>
<path d="M74.5012 89.4699C74.6199 88.0983 73.8266 86.9126 72.7294 86.8216C71.6322 86.7307 70.6465 87.769 70.5279 89.1406C70.4092 90.5123 71.2025 91.698 72.2997 91.7889C73.3969 91.8798 74.3826 90.8416 74.5012 89.4699Z" fill="#F7768E"/>
<g opacity="0.35">
<path d="M74.4995 89.4679C74.3813 90.839 73.3961 91.8773 72.299 91.787C71.202 91.6968 70.4095 90.511 70.5263 89.138C70.5538 88.814 70.6332 88.4962 70.7617 88.1964C70.9821 89.121 71.6366 89.8108 72.4623 89.88C73.288 89.9491 74.0495 89.3762 74.4274 88.5022C74.5041 88.8183 74.5285 89.1443 74.4995 89.4679Z" fill="#1A1B26"/>
</g>
<path d="M72.4306 92.2438C72.3739 92.2438 72.3172 92.2416 72.2594 92.2368C71.5844 92.1809 70.9847 91.8092 70.5705 91.1904C70.1798 90.6064 70.0007 89.8641 70.0668 89.1007C70.1329 88.3373 70.4364 87.6349 70.9224 87.1234C71.4367 86.5812 72.0939 86.3141 72.7669 86.3696C73.4399 86.4251 74.0419 86.7972 74.4561 87.4163C74.8469 88.0003 75.0256 88.7423 74.9598 89.5061C74.8246 91.0547 73.7094 92.2438 72.4306 92.2438ZM72.5949 87.2658C72.2405 87.2658 71.8898 87.4315 71.5984 87.7381C71.2523 88.1024 71.035 88.6136 70.9862 89.1769C70.9375 89.7402 71.0641 90.2795 71.3426 90.6956C71.5977 91.0769 71.951 91.3047 72.3376 91.3369C73.1788 91.4064 73.9433 90.5509 74.0381 89.4299C74.0869 88.8666 73.9603 88.3269 73.6822 87.9108C73.4267 87.5295 73.0734 87.3017 72.6872 87.2699C72.6577 87.2673 72.6263 87.2658 72.5949 87.2658Z" fill="#1A1B26"/>
<path d="M109.492 47.0002C109.492 50.594 108.594 51.4924 105 51.4924C108.594 51.4924 109.492 52.3909 109.492 55.9846C109.492 52.3909 110.391 51.4924 113.984 51.4924C110.391 51.4924 109.492 50.594 109.492 47.0002Z" fill="#C0CAF5"/>
<path fill-rule="evenodd" clip-rule="evenodd" d="M28.2601 38.0002L28.7913 39.6981L30.5205 40.2198L28.7913 40.741L28.2601 42.4389L27.7289 40.741L26 40.2198L27.7289 39.6981L28.2601 38.0002Z" fill="#C0CAF5"/>
<path fill-rule="evenodd" clip-rule="evenodd" d="M35.2601 59.0002L35.7913 60.6981L37.5205 61.2198L35.7913 61.741L35.2601 63.4389L34.7289 61.741L33 61.2198L34.7289 60.6981L35.2601 59.0002Z" fill="#C0CAF5"/>
<path fill-rule="evenodd" clip-rule="evenodd" d="M101.26 74.0002L101.791 75.6981L103.52 76.2198L101.791 76.741L101.26 78.4389L100.729 76.741L99 76.2198L100.729 75.6981L101.26 74.0002Z" fill="#C0CAF5"/>
<path fill-rule="evenodd" clip-rule="evenodd" d="M100.228 101.246C101.777 100.59 103.574 101.292 104.241 102.813C104.909 104.334 104.195 106.099 102.646 106.754C101.097 107.41 99.2999 106.708 98.6321 105.187C97.9646 103.666 98.6789 101.901 100.228 101.246" fill="#E0AF68"/>
<path fill-rule="evenodd" clip-rule="evenodd" d="M103.539 101.824C105.317 101.319 106.64 101.242 106.846 101.711C107.145 102.392 104.966 103.97 101.978 105.234C98.9908 106.499 96.3265 106.971 96.0275 106.29C95.8218 105.822 96.7877 104.929 98.3822 104.007C98.3826 104.148 98.393 104.29 98.4142 104.432C97.657 104.925 97.2331 105.353 97.3358 105.587C97.528 106.025 99.4951 105.613 101.73 104.668C103.964 103.722 105.62 102.6 105.427 102.162C105.325 101.928 104.716 101.937 103.832 102.139C103.741 102.026 103.643 101.921 103.539 101.824" fill="#F7768E"/>
</g>
<path fill-rule="evenodd" clip-rule="evenodd" d="M90.9642 22.8536L91.4936 24.5369L93.2168 25.0541L91.4936 25.5708L90.9642 27.254L90.4348 25.5708L88.7118 25.0541L90.4348 24.5369L90.9642 22.8536Z" fill="#C0CAF5"/>
<path d="M18.4459 66.4742C18.4459 70.037 17.5505 70.9277 13.9691 70.9277C17.5505 70.9277 18.4459 71.8184 18.4459 75.3812C18.4459 71.8184 19.3412 70.9277 22.9227 70.9277C19.3412 70.9277 18.4459 70.037 18.4459 66.4742Z" fill="#C0CAF5"/>
<path d="M59.3053 11.9485C59.3053 15.5112 58.4099 16.4019 54.8285 16.4019C58.4099 16.4019 59.3053 17.2926 59.3053 20.8554C59.3053 17.2926 60.2006 16.4019 63.782 16.4019C60.2006 16.4019 59.3053 15.5112 59.3053 11.9485Z" fill="#C0CAF5"/>
<defs>
<clipPath id="clip0_137_239">
<rect width="96" height="92" fill="white" transform="translate(26 30.0002)"/>
</clipPath>
</defs>
</svg>
