<svg viewBox="0 0 24 24" xmlns="http://www.w3.org/2000/svg"><path d="m12.012 23.968c.504-.001.998-.035 1.483-.1l-.057.006c1.17-.155 2.232-.458 3.222-.893l-.076.03c1.47-.64 2.727-1.496 3.795-2.545l-.002.002c.986-.967 1.803-2.1 2.409-3.355l.031-.072c.487-1.01.845-2.182 1.013-3.415l.007-.061c.065-.478.102-1.03.102-1.591 0-.674-.053-1.335-.156-1.98l.009.071c-.167-1.046-.443-1.983-.823-2.866l.03.078c-.27-.627-.556-1.158-.881-1.661l.027.044c-1.199-1.833-2.825-3.295-4.74-4.268l-.07-.032c-.612-.321-1.332-.616-2.081-.845l-.091-.024h-.005c.119.063.24.132.345.2s.239.146.351.225c.587.397 1.098.835 1.554 1.325l.005.005c1.015 1.112 1.782 2.469 2.201 3.972l.017.069c.261.888.44 1.919.498 2.981l.002.036c.019.256.03.555.03.856 0 .484-.028.961-.082 1.43l.005-.057c-.152 1.348-.589 2.569-1.25 3.637l.022-.038c-.508.821-1.141 1.513-1.881 2.07l-.019.014c-.93.752-2.127 1.207-3.43 1.207-.356 0-.703-.034-1.04-.099l.034.005c-.286-.068-.535-.157-.772-.268l.024.01c-.298-.137-.554-.287-.793-.459l.014.01c-.474-.319-.883-.685-1.237-1.098l-.007-.008c-.422-.5-.775-1.077-1.033-1.704l-.016-.043c-.299-.752-.479-1.623-.494-2.534v-.006c-.004-.083-.006-.181-.006-.28 0-1.242.318-2.41.878-3.427l-.019.037c.432-.759.985-1.397 1.641-1.91l.014-.011c.203-.159.431-.317.669-.462l.031-.017.016-.007c-.343-.082-.737-.129-1.141-.129-.105 0-.21.003-.314.009l.014-.001c-.447.031-.862.116-1.256.249l.035-.01c-.393.131-.729.283-1.047.465l.028-.015c-.28.162-.519.326-.746.505l.013-.01c-.211.18-.42.359-.615.555-1.058 1.137-1.784 2.596-2.017 4.214l-.005.042c-.083.571-.131 1.231-.131 1.902 0 .369.014.735.043 1.097l-.003-.048c.095 1.486.433 2.869.976 4.143l-.031-.082c.36.832.811 1.549 1.355 2.185l-.01-.012c.839.965 1.888 1.725 3.078 2.211l.054.02c.616.26 1.33.45 2.076.536l.037.003c.054.01.116.015.179.015h.031-.002l-.021-.032zm-2.933-.4c-.179-.078-.327-.154-.469-.238l.019.01c-.149-.083-.3-.168-.449-.259-.601-.377-1.122-.798-1.587-1.273l-.001-.001c-1.042-1.115-1.822-2.489-2.232-4.014l-.015-.067c-.26-.934-.437-2.019-.494-3.136l-.001-.036c-.016-.231-.025-.502-.025-.774 0-.461.026-.916.076-1.363l-.005.055c.131-1.333.532-2.548 1.147-3.624l-.023.044c.466-.81 1.062-1.492 1.767-2.039l.016-.012c.469-.363 1.009-.666 1.59-.886l.043-.014c.543-.203 1.171-.321 1.827-.321.26 0 .515.018.765.054l-.029-.003c.361.049.684.128.994.236l-.036-.011c.029 0 .029 0 .045.03.015.015.045.015.06.03.045.016.1.045.165.074.275.144.504.284.723.435l-.023-.015c.902.635 1.616 1.478 2.084 2.462l.016.038c.393.864.625 1.873.631 2.936v.002c.001.052.002.113.002.174 0 1.077-.238 2.099-.666 3.015l.018-.044c-.581 1.204-1.488 2.173-2.607 2.815l-.031.017c.09.03.18.045.271.075.206.045.443.072.686.074h.002c1.539-.015 2.929-.641 3.94-1.647.194-.179.371-.37.532-.574l.008-.011c.209-.244.411-.512.596-.793l.018-.03c.211-.326.416-.705.592-1.1l.022-.054c.21-.476.386-1.033.501-1.612l.008-.051c.118-.63.185-1.354.185-2.094 0-.328-.013-.653-.039-.974l.003.042c-.091-2.141-.766-4.107-1.868-5.765l.026.041c-.19-.272-.372-.506-.565-.731l.01.012c-.33-.371-.677-.709-1.047-1.02l-.015-.012c-.399-.33-.845-.633-1.319-.893l-.044-.022c-.476-.226-1.039-.431-1.623-.585l-.069-.015-.3-.06c-.209-.03-.42-.044-.634-.06-.112-.005-.243-.008-.374-.008-.225 0-.449.009-.67.026l.029-.002c-.777.054-1.498.174-2.193.357l.081-.018c-3.449.924-6.245 3.214-7.822 6.24l-.032.068c-.8 1.555-1.269 3.394-1.269 5.342 0 .552.038 1.095.11 1.626l-.007-.062c.129 1.103.403 2.109.805 3.048l-.027-.071c.261.641.538 1.183.854 1.698l-.029-.05c1.125 1.781 2.647 3.216 4.447 4.208l.063.032c.612.349 1.325.668 2.069.919l.088.026c.226.074.45.149.689.209z"/></svg>
