<svg viewBox="0 0 128 128">
<path fill="white" d="M49.33 62h29.159C86.606 62 93 55.132 93 46.981V19.183c0-7.912-6.632-13.856-14.555-15.176-5.014-.835-10.195-1.215-15.187-1.191-4.99.023-9.612.448-13.805 1.191C37.098 6.188 35 10.758 35 19.183V30h29v4H23.776c-8.484 0-15.914 5.108-18.237 14.811-2.681 11.12-2.8 17.919 0 29.53C7.614 86.983 12.569 93 21.054 93H31V79.952C31 70.315 39.428 62 49.33 62zm-1.838-39.11c-3.026 0-5.478-2.479-5.478-5.545 0-3.079 2.451-5.581 5.478-5.581 3.015 0 5.479 2.502 5.479 5.581-.001 3.066-2.465 5.545-5.479 5.545zm74.789 25.921C120.183 40.363 116.178 34 107.682 34H97v12.981C97 57.031 88.206 65 78.489 65H49.33C41.342 65 35 72.326 35 80.326v27.8c0 7.91 6.745 12.564 14.462 14.834 9.242 2.717 17.994 3.208 29.051 0C85.862 120.831 93 116.549 93 108.126V97H64v-4h43.682c8.484 0 11.647-5.776 14.599-14.66 3.047-9.145 2.916-17.799 0-29.529zm-41.955 55.606c3.027 0 5.479 2.479 5.479 5.547 0 3.076-2.451 5.579-5.479 5.579-3.015 0-5.478-2.502-5.478-5.579 0-3.068 2.463-5.547 5.478-5.547z"></path>
</svg> 
