<svg width="32px" viewBox="0 0 32 32"><path d="M27.3,5H5.886L2,8.958V26H26.114L30,22.042V5ZM16.9,23.07l-1.828.852L13.5,21.331a3.968,3.968,0,0,1-1.082.106c-1.845,0-3.123-.5-3.85-1.49a8.03,8.03,0,0,1-1.082-4.7,8.351,8.351,0,0,1,1.1-4.773,4.379,4.379,0,0,1,3.833-1.561c1.828,0,3.087.515,3.833,1.544a8.351,8.351,0,0,1,1.1,4.773,10.809,10.809,0,0,1-.452,3.44,3.9,3.9,0,0,1-1.473,2Zm5.848-1.67a2.735,2.735,0,0,1-2.168-.692A4.192,4.192,0,0,1,20,18.1V14H19V12h1V9h2v3h2v2H22v3.9a3.907,3.907,0,0,0,.168,1.437c.112.231.393.355.86.355l1.533-.053.093,1.544A12.519,12.519,0,0,1,22.748,21.4ZM12.416,10.614a2.4,2.4,0,0,0-2.289,1.1,7.657,7.657,0,0,0-.6,3.513,7.131,7.131,0,0,0,.6,3.442A2.44,2.44,0,0,0,12.433,19.7a2.417,2.417,0,0,0,2.289-1.011,7.343,7.343,0,0,0,.586-3.442,7.692,7.692,0,0,0-.6-3.531A2.4,2.4,0,0,0,12.416,10.614Z" fill="white"/></svg>
