<svg width="128" height="128" viewBox="0 0 128 128" fill="none" xmlns="http://www.w3.org/2000/svg">
<path d="M63.5 122C95.2564 122 121 96.2564 121 64.5C121 32.7436 95.2564 7 63.5 7C31.7436 7 6 32.7436 6 64.5C6 96.2564 31.7436 122 63.5 122Z" fill="#414868"/>
<path d="M9.50562 84.3123C17.5799 106.307 38.7066 122 63.4999 122C64.118 122 64.729 121.973 65.3426 121.953C57.2684 99.9586 36.1416 84.2656 11.3483 84.2656C10.7311 84.2656 10.1192 84.2926 9.50562 84.3123Z" fill="#D9CDEA"/>
<path d="M65.503 43.293C63.7322 41.0721 58.762 42.1295 53.0749 45.9344C49.1227 48.7232 42.5362 60.5152 41.822 63.2653C41.1077 66.0154 46.2261 65.338 47.3213 64.6938C49.0544 63.6759 53.9473 56.1407 54.436 55.3887C54.9257 54.6358 58.1636 54.5954 60.6505 54.0671C61.363 51.317 64.5255 44.7997 65.503 43.293Z" fill="#F7768E"/>
<path d="M85.0937 56.0159C87.8447 56.7292 88.9003 61.7003 87.7351 68.4431C86.7935 73.1886 78.7004 84.0022 76.4812 85.773C74.2585 87.5465 72.7967 82.5934 72.9387 81.3329C73.1642 79.3339 78.0571 71.8014 78.5467 71.0476C79.0364 70.2947 77.7543 67.32 77.2242 64.834C79.447 63.0596 84.1153 57.5217 85.0937 56.0159Z" fill="#F7768E"/>
<path d="M102.702 7.45794C100.44 5.98989 85.7531 7.16505 74.4957 24.495C65.1987 38.8125 59.8952 53.5774 59.6697 55.5738C61.931 57.0436 67.9587 60.9563 67.9587 60.9563C67.9587 60.9563 73.9872 64.8699 76.2477 66.3379C77.9816 65.3209 89.8015 53.7149 98.6116 40.1521C109.864 22.8203 104.96 8.92688 102.702 7.45794Z" fill="#C0CAF5"/>
<path d="M88.0203 39.0468C92.9822 39.0468 97.0046 35.0244 97.0046 30.0624C97.0046 25.1005 92.9822 21.0781 88.0203 21.0781C83.0583 21.0781 79.0359 25.1005 79.0359 30.0624C79.0359 35.0244 83.0583 39.0468 88.0203 39.0468Z" fill="#414868"/>
<path d="M85.0835 34.5833C82.5922 32.9625 81.8806 29.6195 83.4978 27.1263C85.1186 24.6331 88.4607 23.9225 90.9566 25.5397C93.4471 27.1595 94.1577 30.5026 92.5415 32.9976C90.9216 35.4916 87.5794 36.2023 85.0835 34.5833Z" fill="#C2E2F2"/>
<path d="M96.8287 16.5C99.5959 18.2968 102.623 19.3741 105.69 19.7864C106.006 12.8882 103.951 8.27028 102.702 7.45539C101.448 6.645 96.3939 6.6468 90.2207 9.73922C91.8451 12.3743 94.0615 14.7022 96.8287 16.5Z" fill="#F7768E"/>
<path d="M74.8191 71.8387C74.2801 72.668 73.1615 72.906 72.3323 72.3679L55.7561 61.6046C54.9268 61.0646 54.6887 59.9461 55.2269 59.1168L57.1855 56.1035C57.7246 55.2751 58.8422 55.0361 59.6724 55.5752L76.2476 66.3403C77.0778 66.8793 77.315 67.997 76.7777 68.828L74.8191 71.8387Z" fill="#F7768E"/>
<path d="M62.2338 61.5246C61.6948 62.3557 61.0335 63.4086 60.3435 64.5811L68.5004 69.8783C69.2919 68.7705 69.9837 67.7355 70.5237 66.9053C71.0637 66.0752 71.724 65.0222 72.414 63.8507L64.2589 58.5535C63.4656 59.6603 62.772 60.6935 62.2338 61.5246Z" fill="#BF5347"/>
<path d="M57.2625 62.5807C51.3175 71.734 43.8317 90.2804 47.7849 92.8473C51.7362 95.4141 65.6332 81.0346 71.5791 71.8768L57.2625 62.5807Z" fill="#E0AF68" fill-opacity="0.52"/>
<path d="M58.769 63.5589C52.824 72.7122 50.5348 81.7792 53.6551 83.8052C56.7763 85.8321 64.1264 80.0515 70.0713 70.8991L58.769 63.5589Z" fill="#E0AF68"/>
<path d="M74.7053 51.408C73.2487 50.4622 68.3441 55.4303 63.7506 62.5045C59.157 69.5788 56.6139 76.0803 58.0704 77.0261C59.527 77.9719 64.4316 73.0038 69.0252 65.9296C73.6188 58.8553 76.1618 52.3538 74.7053 51.408Z" fill="#F7768E"/>
<path d="M28.1285 89.9393C25.3704 88.8184 22.4531 89.5866 21.6124 91.6551C20.7718 93.7236 22.3261 96.3092 25.0841 97.4301C27.8422 98.551 30.7595 97.7828 31.6002 95.7142C32.4409 93.6457 30.8865 91.0602 28.1285 89.9393Z" fill="#B6AACD"/>
<path d="M26.8975 97.4456C24.1393 96.3252 22.5841 93.7395 23.425 91.6704C23.9057 90.4863 25.0782 89.7442 26.5013 89.5232C24.3109 89.2087 22.302 90.0128 21.6282 91.6704C20.7872 93.7395 22.3424 96.3252 25.1006 97.4456C26.2803 97.9245 27.4779 98.0395 28.5407 97.8759C27.9954 97.7969 27.4446 97.6684 26.8975 97.4456Z" fill="#414868"/>
<path d="M42.9031 95.7914C41.5344 94.3983 39.5782 94.1008 38.5338 95.127C37.4893 96.1532 37.7521 98.1144 39.1208 99.5074C40.4895 100.901 42.4457 101.198 43.4902 100.172C44.5346 99.1457 44.2718 97.1845 42.9031 95.7914Z" fill="#B6AACD"/>
<path d="M40.1869 99.9482C38.8203 98.5565 38.558 96.5952 39.6029 95.5683C40.1994 94.9798 41.0979 94.8397 42.0134 95.0769C40.7771 94.3177 39.3585 94.2755 38.5212 95.0975C37.4763 96.1262 37.7386 98.0857 39.106 99.4783C39.6909 100.074 40.3836 100.457 41.0664 100.633C40.7574 100.447 40.4591 100.226 40.1869 99.9482Z" fill="#414868"/>
<path d="M40.2575 103.629C37.4075 102.824 34.6078 103.904 34.0042 106.042C33.4005 108.179 35.2215 110.564 38.0714 111.369C40.9214 112.174 43.721 111.094 44.3247 108.957C44.9284 106.819 43.1074 104.434 40.2575 103.629Z" fill="#B6AACD"/>
<path d="M39.8811 111.18C37.0339 110.375 35.2137 107.988 35.8192 105.851C36.1624 104.627 37.2406 103.768 38.6233 103.393C36.4248 103.323 34.5246 104.336 34.0403 106.049C33.4357 108.185 35.2568 110.572 38.1058 111.376C39.324 111.721 40.5208 111.703 41.5549 111.425C41.0095 111.407 40.448 111.341 39.8811 111.18Z" fill="#414868"/>
<path d="M31.114 25.8672C31.114 29.4609 30.2156 30.3594 26.6218 30.3594C30.2156 30.3594 31.114 31.2578 31.114 34.8516C31.114 31.2578 32.0125 30.3594 35.6062 30.3594C32.0125 30.3594 31.114 29.4609 31.114 25.8672Z" fill="#C0CAF5"/>
<path d="M19.4343 51.9219C19.4343 55.5156 18.5359 56.4141 14.9421 56.4141C18.5359 56.4141 19.4343 57.3125 19.4343 60.9062C19.4343 57.3125 20.3328 56.4141 23.9265 56.4141C20.3328 56.4141 19.4343 55.5156 19.4343 51.9219Z" fill="#C0CAF5"/>
<path d="M32.0125 68.0938C32.0125 71.6875 31.114 72.5859 27.5203 72.5859C31.114 72.5859 32.0125 73.4844 32.0125 77.0781C32.0125 73.4844 32.9109 72.5859 36.5046 72.5859C32.9109 72.5859 32.0125 71.6875 32.0125 68.0938Z" fill="#C0CAF5"/>
<path d="M79.6296 97.7422C79.6296 101.336 78.7312 102.234 75.1375 102.234C78.7312 102.234 79.6296 103.133 79.6296 106.727C79.6296 103.133 80.5281 102.234 84.1218 102.234C80.5281 102.234 79.6296 101.336 79.6296 97.7422Z" fill="#C0CAF5"/>
<path d="M111.973 77.0781C111.973 80.6719 111.075 81.5703 107.481 81.5703C111.075 81.5703 111.973 82.4688 111.973 86.0625C111.973 82.4688 112.872 81.5703 116.466 81.5703C112.872 81.5703 111.973 80.6719 111.973 77.0781Z" fill="#C0CAF5"/>
<path d="M109.278 45.6328C109.278 49.2266 108.38 50.125 104.786 50.125C108.38 50.125 109.278 51.0234 109.278 54.6172C109.278 51.0234 110.177 50.125 113.77 50.125C110.177 50.125 109.278 49.2266 109.278 45.6328Z" fill="#C0CAF5"/>
<path d="M64.3562 13.2891C64.3562 16.8828 63.4578 17.7812 59.864 17.7812C63.4578 17.7812 64.3562 18.6797 64.3562 22.2734C64.3562 18.6797 65.2546 17.7812 68.8484 17.7812C65.2546 17.7812 64.3562 16.8828 64.3562 13.2891Z" fill="#C0CAF5"/>
<path d="M49.0828 32.1562C49.0828 35.75 48.1843 36.6484 44.5906 36.6484C48.1843 36.6484 49.0828 37.5469 49.0828 41.1406C49.0828 37.5469 49.9812 36.6484 53.575 36.6484C49.9812 36.6484 49.0828 35.75 49.0828 32.1562Z" fill="#C0CAF5"/>
</svg>
