<svg width="119" height="125" viewBox="0 0 119 125" fill="none" xmlns="http://www.w3.org/2000/svg">
<path fill-rule="evenodd" clip-rule="evenodd" d="M59.4284 115.297C91.7598 115.297 118.13 89.4003 118.13 57.6484C118.13 25.8967 91.7598 -0.000213273 59.4284 -0.000213273C27.0969 -0.000213273 0.727051 25.8967 0.727051 57.6484C0.727051 89.4003 27.0969 115.297 59.4284 115.297" fill="#414868"/>
<path fill-rule="evenodd" clip-rule="evenodd" d="M55.8101 70.9562H60.8974V60.1024H55.8101V70.9562Z" fill="#8177A4"/>
<path fill-rule="evenodd" clip-rule="evenodd" d="M52.067 74.5737L51.4775 69.8559H66.8613L66.3353 74.4587L52.067 74.5737" fill="#C0CAF5"/>
<path fill-rule="evenodd" clip-rule="evenodd" d="M62.9237 74.5514L64.6163 124.735H62.7449L56.1636 74.4971L62.9237 74.5514Z" fill="#312D40"/>
<path fill-rule="evenodd" clip-rule="evenodd" d="M52.7802 74.5514L33.1323 124.735H35.0032L59.5598 74.4971L52.7802 74.5514Z" fill="#8177A4"/>
<path fill-rule="evenodd" clip-rule="evenodd" d="M65.6915 74.5514L85.3396 124.735H83.4683L58.9116 74.4971L65.6915 74.5514Z" fill="#8177A4"/>
<path fill-rule="evenodd" clip-rule="evenodd" d="M24.9058 54.4342C25.639 61.4007 28.4991 66.434 33.1326 69.8557L29.5737 72.0757C24.1445 67.9027 21.5793 62.5488 21.7225 56.0769L24.9058 54.4342Z" fill="#E0AF68"/>
<path fill-rule="evenodd" clip-rule="evenodd" d="M24.9053 54.4336C30.0576 57.5699 32.7 62.793 33.1321 69.855C28.4985 66.4333 25.6385 61.4001 24.9053 54.4336" fill="#E0AF68"/>
<path fill-rule="evenodd" clip-rule="evenodd" d="M26.3481 56.7906C27.1364 60.8263 28.8272 64.4187 31.7737 67.3004L61.9583 54.3275L53.143 40.3209L26.3481 56.7906" fill="#C0CAF5"/>
<path fill-rule="evenodd" clip-rule="evenodd" d="M27.1665 59.8863C28.1156 62.6716 29.6042 65.1786 31.7734 67.3004L54.8627 57.3769L46.0588 48.3293C46.4282 51.438 47.2679 54.3617 48.6761 57.0624C48.1909 56.7053 47.7063 56.3482 47.2214 55.9911C41.8708 58.5927 36.52 61.1948 31.1695 63.7967C29.3561 63.1344 28.2145 61.573 27.1665 59.8863" fill="#B6AACD"/>
<path fill-rule="evenodd" clip-rule="evenodd" d="M78.2012 18.6222C88.3068 24.7735 93.49 35.0188 94.337 48.8698C85.249 42.1589 79.6392 32.2866 78.2012 18.6222Z" fill="#E0AF68"/>
<path fill-rule="evenodd" clip-rule="evenodd" d="M92.7271 45.8771C95.7837 34.0919 92.0524 25.3671 79.915 21.3743C81.4143 30.98 85.3194 39.4353 92.7271 45.8771" fill="#7AA2F7"/>
<path fill-rule="evenodd" clip-rule="evenodd" d="M50.0714 35.4005C51.2918 46.9981 56.0528 55.3773 63.7666 61.0729L57.8417 64.7687C48.8043 57.8221 44.5333 48.9085 44.7722 38.1349L50.0714 35.4005Z" fill="#E0AF68"/>
<path fill-rule="evenodd" clip-rule="evenodd" d="M50.0713 35.4001C58.6483 40.6212 63.0475 49.3166 63.7665 61.0724C56.0527 55.3769 51.2916 46.9977 50.0713 35.4001Z" fill="#E0AF68"/>
<path fill-rule="evenodd" clip-rule="evenodd" d="M51.4775 37.6559C52.7462 45.882 56.0849 53.1187 62.4451 58.6179L88.0956 49.9733L74.5128 23.5212L51.4775 37.6559" fill="#C0CAF5"/>
<path fill-rule="evenodd" clip-rule="evenodd" d="M53.4609 45.4941C55.2967 50.4953 58.1973 54.9442 62.4456 58.6179L88.0961 49.9733L82.4332 38.9456L73.6085 34.2963C73.8025 38.2754 74.6041 41.8679 75.9754 45.0988C70.46 47.6327 64.9443 50.1663 59.4289 52.7002C57.0024 51.0578 55.1256 48.4603 53.4609 45.4941Z" fill="#B6AACD"/>
<path fill-rule="evenodd" clip-rule="evenodd" d="M78.201 18.6227C79.6391 32.287 85.2489 42.1593 94.3369 48.8702L87.3566 53.2245C76.7082 45.04 71.6767 34.5381 71.9574 21.8443L78.201 18.6227Z" fill="#E0AF68"/>
<path fill-rule="evenodd" clip-rule="evenodd" d="M64.6039 32.3281L69.7866 29.105L70.7785 34.2963L65.3219 36.8179L64.6039 32.3281ZM53.4609 39.2571L62.5564 33.6012L63.3203 37.7432L54.1794 41.9671L53.4609 39.2571Z" fill="#F5F1FA"/>
<path fill-rule="evenodd" clip-rule="evenodd" d="M38.4398 51.4339L42.0555 49.1854L42.7473 52.807L38.9409 54.5658L38.4398 51.4339ZM30.667 56.2673L37.012 52.3217L37.5442 55.2115L31.1683 58.1577L30.667 56.2673Z" fill="#F5F1FA"/>
<path fill-rule="evenodd" clip-rule="evenodd" d="M86.359 25.6838C85.7092 26.2825 85.0968 26.9889 84.5238 27.8117C83.9684 26.6678 83.5039 25.4732 83.1201 24.2371C84.3559 24.624 85.4335 25.109 86.359 25.6838V25.6838ZM90.679 35.4003C91.0419 31.9456 90.2135 29.0681 88.0289 26.971C87.0738 27.6084 86.2355 28.4933 85.5384 29.6739C86.8469 31.8243 88.5349 33.7562 90.679 35.4003Z" fill="#7DCFFF"/>
<path fill-rule="evenodd" clip-rule="evenodd" d="M36.6772 29.9723C41.3697 29.9723 45.1969 26.2138 45.1969 21.6056C45.1969 16.9974 41.3697 13.2389 36.6772 13.2389C31.9848 13.2389 28.1577 16.9974 28.1577 21.6056C28.1577 26.2138 31.9848 29.9723 36.6772 29.9723Z" fill="#C0CAF5"/>
<path fill-rule="evenodd" clip-rule="evenodd" d="M40.5731 20.127C41.979 20.127 43.1186 21.2462 43.1186 22.6269C43.1186 24.0073 41.979 25.1268 40.5731 25.1268C39.1674 25.1268 38.0275 24.0073 38.0275 22.6269C38.0275 21.2462 39.1674 20.127 40.5731 20.127ZM34.9369 24.5146C35.8979 24.5146 36.677 25.2799 36.677 26.2237C36.677 27.1673 35.8979 27.9326 34.9369 27.9326C33.9755 27.9326 33.1965 27.1673 33.1965 26.2237C33.1965 25.2799 33.9755 24.5146 34.9369 24.5146ZM30.9752 18.6228C31.8143 18.6228 32.4944 19.2908 32.4944 20.1148C32.4944 20.9388 31.8143 21.6067 30.9752 21.6067C30.1362 21.6067 29.4561 20.9388 29.4561 20.1148C29.4561 19.2908 30.1362 18.6228 30.9752 18.6228ZM36.5014 18.6228C36.921 18.6228 37.261 18.9569 37.261 19.3691C37.261 19.7807 36.921 20.1148 36.5014 20.1148C36.082 20.1148 35.7418 19.7807 35.7418 19.3691C35.7418 18.9569 36.082 18.6228 36.5014 18.6228ZM39.5084 15.4335C40.3258 15.4335 40.9887 16.0843 40.9887 16.8875C40.9887 17.6905 40.3258 18.3413 39.5084 18.3413C38.6905 18.3413 38.0275 17.6905 38.0275 16.8875C38.0275 16.0843 38.6905 15.4335 39.5084 15.4335ZM34.1835 15.4335C34.7287 15.4335 35.1705 15.8676 35.1705 16.403C35.1705 16.9384 34.7287 17.3723 34.1835 17.3723C33.6383 17.3723 33.1965 16.9384 33.1965 16.403C33.1965 15.8676 33.6383 15.4335 34.1835 15.4335Z" fill="#B6AACD"/>
<path fill-rule="evenodd" clip-rule="evenodd" d="M61.6881 9.74509L62.2193 11.443L63.948 11.9647L62.2193 12.4864L61.6881 14.184L61.1574 12.4864L59.4282 11.9647L61.1574 11.443L61.6881 9.74509Z" fill="#C0CAF5"/>
<path fill-rule="evenodd" clip-rule="evenodd" d="M34.4168 76.732L34.9481 78.4302L36.677 78.9516L34.9481 79.4733L34.4168 81.1712L33.8859 79.4733L32.1572 78.9516L33.8859 78.4302L34.4168 76.732Z" fill="#C0CAF5"/>
<path fill-rule="evenodd" clip-rule="evenodd" d="M81.2601 64L81.7911 65.6979L83.52 66.2193L81.7911 66.7413L81.2601 68.4387L80.7289 66.7413L79 66.2193L80.7289 65.6979L81.2601 64" fill="#C0CAF5"/>
<path fill-rule="evenodd" clip-rule="evenodd" d="M94.2601 75L94.7911 76.6979L96.52 77.2193L94.7911 77.7413L94.2601 79.4387L93.7289 77.7413L92 77.2193L93.7289 76.6979L94.2601 75" fill="#C0CAF5"/>
<path fill-rule="evenodd" clip-rule="evenodd" d="M32.1571 36.298L32.6881 37.9958L34.4167 38.5175L32.6881 39.039L32.1571 40.7369L31.6259 39.039L29.897 38.5175L31.6259 37.9958L32.1571 36.298Z" fill="#C0CAF5"/>
<path fill-rule="evenodd" clip-rule="evenodd" d="M104.795 47.0233L105.326 48.7212L107.056 49.2429L105.326 49.7641L104.795 51.462L104.264 49.7641L102.535 49.2429L104.264 48.7212L104.795 47.0233Z" fill="#C0CAF5"/>
<path fill-rule="evenodd" clip-rule="evenodd" d="M54.2215 97.4047L54.7525 99.1026L56.4814 99.624L54.7525 100.146L54.2215 101.844L53.6903 100.146L51.9614 99.624L53.6903 99.1026L54.2215 97.4047Z" fill="#C0CAF5"/>
<path fill-rule="evenodd" clip-rule="evenodd" d="M85.5865 94.1512L86.1178 95.8491L87.8464 96.3707L86.1178 96.8922L85.5865 98.5901L85.0553 96.8922L83.3267 96.3707L85.0553 95.8491L85.5865 94.1512Z" fill="#C0CAF5"/>
<path fill-rule="evenodd" clip-rule="evenodd" d="M11.2584 49.243L11.7896 50.9409L13.5185 51.4621L11.7896 51.9838L11.2584 53.6817L10.7274 51.9838L8.99854 51.4621L10.7274 50.9409L11.2584 49.243Z" fill="#C0CAF5"/>
</svg>
