<svg xmlns="http://www.w3.org/2000/svg" width="32" height="32" version="1.1">
 <circle style="opacity:0.2" cx="16" cy="17" r="14"/>
 <circle style="fill:#4f4f4f" cx="16" cy="16" r="14"/>
 <path style="opacity:0.2" d="m 12.623047,13 -1.523438,9 h 1 5.263672 0.15625 l 3.681641,-9 H 20.099609 L 17,20.582031 v -4.703125 c -0.156609,0.07489 -0.325175,0.115235 -0.5,0.115235 -0.174825,0 -0.343391,-0.04035 -0.5,-0.115235 V 21 h -3.730469 l 1.353516,-8 z"/>
 <path style="opacity:0.2" d="m 16,8 a 9,9 0 0 0 -9,9 9,9 0 0 0 9,9 9,9 0 0 0 9,-9 9,9 0 0 0 -9,-9 z m 0,1 a 7.9999999,7.9999999 0 0 1 8,8 7.9999999,7.9999999 0 0 1 -8,8 7.9999999,7.9999999 0 0 1 -8,-8 7.9999999,7.9999999 0 0 1 8,-8 z"/>
 <path style="fill:#ffffff" d="m 12.623876,12 h 1.000062 l -1.523876,9 H 11.1 Z"/>
 <path style="fill:#ffffff" d="m 17.36295,20 v 1 H 11.100001 L 11.52,20 Z"/>
 <path style="fill:#6f6fee" d="M 16 7 A 9 9 0 0 0 7 16 A 9 9 0 0 0 16 25 A 9 9 0 0 0 25 16 A 9 9 0 0 0 16 7 z M 16 8 A 7.9999999 7.9999999 0 0 1 24 16 A 7.9999999 7.9999999 0 0 1 16 24 A 7.9999999 7.9999999 0 0 1 8 16 A 7.9999999 7.9999999 0 0 1 16 8 z"/>
 <path style="fill:#ffffff" d="M 16,14.878 V 21 h 1 v -6.122 c -0.156609,0.07489 -0.325175,0.116001 -0.5,0.116001 -0.174825,0 -0.343391,-0.04112 -0.5,-0.116001 z"/>
 <path style="fill:#ffffff" d="m 20.100529,12 h 1.099735 l -3.680529,9 H 16.42 Z"/>
 <path style="opacity:0.2" d="m 7.8671875,11.001953 c -0.5077723,0.0104 -0.9600248,0.06265 -1.3535156,0.162109 -0.6995383,0.176815 -1.2877432,0.524962 -1.4648438,1.205079 -0.1771015,0.680116 0.1383235,1.370461 0.6289063,1.996093 0.3535818,0.450916 0.8387175,0.906463 1.4140625,1.367188 0.054036,-0.383267 0.1297372,-0.758831 0.2304687,-1.125 C 6.936014,14.274886 6.6151218,13.957096 6.3945312,13.675781 6.0104195,13.18593 5.9445418,12.868126 5.9824219,12.722656 c 0.03788,-0.145468 0.2432978,-0.361559 0.7910156,-0.5 0.5477168,-0.13844 1.3625452,-0.176431 2.3515625,-0.0918 1.978035,0.169274 4.657324,0.813185 7.519531,1.892579 2.862208,1.07939 5.367708,2.391827 7.072266,3.611328 0.85228,0.609749 1.50456,1.199602 1.888672,1.689453 0.38411,0.489849 0.449988,0.807655 0.412109,0.953125 -0.03788,0.14547 -0.243297,0.361559 -0.791016,0.5 -0.297281,0.07514 -0.678568,0.117262 -1.11914,0.128906 -0.181389,0.375764 -0.385371,0.737546 -0.615234,1.082031 0.77116,0.03049 1.443228,-0.01309 1.99414,-0.152343 0.699539,-0.176816 1.287743,-0.526914 1.464844,-1.207032 0.177101,-0.680117 -0.14223,-1.370461 -0.632813,-1.996094 -0.490583,-0.62563 -1.20542,-1.257576 -2.109375,-1.904296 -1.807909,-1.29344 -4.369276,-2.628372 -7.296875,-3.732422 -2.9276,-1.104052 -5.665705,-1.767727 -7.7636715,-1.947266 -0.2622456,-0.02244 -0.5142281,-0.03566 -0.7558594,-0.04297 -0.1812237,-0.0055 -0.3561332,-0.0074 -0.5253906,-0.0039 z"/>
 <path style="fill:#59d4f1" d="M 7.8671875 10.001953 C 7.3594152 10.01235 6.9071627 10.064605 6.5136719 10.164062 C 5.8141336 10.340877 5.2259287 10.689024 5.0488281 11.369141 C 4.8717266 12.049257 5.1871516 12.739602 5.6777344 13.365234 C 6.0313162 13.81615 6.5164519 14.271697 7.0917969 14.732422 C 7.1458329 14.349155 7.2215341 13.973591 7.3222656 13.607422 C 6.936014 13.274886 6.6151218 12.957096 6.3945312 12.675781 C 6.0104195 12.18593 5.9445418 11.868126 5.9824219 11.722656 C 6.0203019 11.577188 6.2257197 11.361097 6.7734375 11.222656 C 7.3211543 11.084216 8.1359827 11.046225 9.125 11.130859 C 11.103035 11.300133 13.782324 11.944044 16.644531 13.023438 C 19.506739 14.102828 22.012239 15.415265 23.716797 16.634766 C 24.569077 17.244515 25.221357 17.834368 25.605469 18.324219 C 25.989579 18.814068 26.055457 19.131874 26.017578 19.277344 C 25.979698 19.422814 25.774281 19.638903 25.226562 19.777344 C 24.929281 19.852484 24.547994 19.894606 24.107422 19.90625 C 23.926033 20.282014 23.722051 20.643796 23.492188 20.988281 C 24.263348 21.018773 24.935416 20.975188 25.486328 20.835938 C 26.185867 20.659122 26.774071 20.309024 26.951172 19.628906 C 27.128273 18.948789 26.808942 18.258445 26.318359 17.632812 C 25.827776 17.007182 25.112939 16.375236 24.208984 15.728516 C 22.401075 14.435076 19.839708 13.100144 16.912109 11.996094 C 13.984509 10.892042 11.246404 10.228367 9.1484375 10.048828 C 8.8861919 10.026388 8.6342094 10.013169 8.3925781 10.005859 C 8.2113544 10.000372 8.0364449 9.9984875 7.8671875 10.001953 z"/>
 <circle style="opacity:0.2" cx="16.5" cy="13.5" r="1.5"/>
 <circle style="fill:#ffffff" cx="16.5" cy="12.5" r="1.5"/>
 <path style="fill:#ffffff;opacity:0.1" d="M 16 2 A 14 14 0 0 0 2 16 A 14 14 0 0 0 2.0351562 16.5 A 14 14 0 0 1 16 3 A 14 14 0 0 1 29.980469 16.279297 A 14 14 0 0 0 30 16 A 14 14 0 0 0 16 2 z"/>
</svg>
