<svg xmlns="http://www.w3.org/2000/svg" width="24" height="24" version="1.1">
 <circle style="opacity:0.2" cx="12" cy="12.5" r="10"/>
 <circle style="fill:#4f4f4f" cx="12" cy="12" r="10"/>
 <path style="opacity:0.2" d="M 9.5878906,9.5 8.5,15.5 h 1 3.472656 H 13 13.300781 l 2.628907,-6 h -1 L 13,13.904297 V 11.910156 A 1.5,1.5 0 0 1 12.5,12 1.5,1.5 0 0 1 12,11.910156 V 14.5 H 9.6816406 l 0.9062504,-5 z"/>
 <path style="opacity:0.2" d="m 12,6.5 a 6,6 0 0 0 -6,6 6,6 0 0 0 6,6 6,6 0 0 0 6,-6 6,6 0 0 0 -6,-6 z m 0,0.9230769 A 5.0769231,5.0769231 0 0 1 17.076923,12.5 5.0769231,5.0769231 0 0 1 12,17.576923 5.0769231,5.0769231 0 0 1 6.9230769,12.5 5.0769231,5.0769231 0 0 1 12,7.4230769 Z"/>
 <path style="fill:#ffffff" d="M 9.5884825,9 H 10.588483 L 9.5,15 h -1 z"/>
 <path style="opacity:0.1;fill:#ffffff" d="M 12,2 A 10,10 0 0 0 2,12 10,10 0 0 0 2.01075,12.291 10,10 0 0 1 12,2.5 10,10 0 0 1 21.9895,12.209 10,10 0 0 0 22,12 10,10 0 0 0 12,2 Z"/>
 <path style="fill:#ffffff" d="m 12.973536,14 v 1 H 8.5000005 L 8.8,14 Z"/>
 <path style="fill:#6f6fee" d="m 12,6 a 6,6 0 0 0 -6,6 6,6 0 0 0 6,6 6,6 0 0 0 6,-6 6,6 0 0 0 -6,-6 z m 0,0.9230769 A 5.0769231,5.0769231 0 0 1 17.076923,12 5.0769231,5.0769231 0 0 1 12,17.076923 5.0769231,5.0769231 0 0 1 6.9230769,12 5.0769231,5.0769231 0 0 1 12,6.9230769 Z"/>
 <path style="fill:#ffffff" d="M 12 11.410156 L 12 15 L 13 15 L 13 11.410156 A 1.5 1.5 0 0 1 12.5 11.5 A 1.5 1.5 0 0 1 12 11.410156 z"/>
 <path style="fill:#ffffff" d="m 14.92895,9 h 1 L 13.3,15 h -1 z"/>
 <path style="opacity:0.2" d="m 6.0859375,8.5019531 c -0.3692889,0.00756 -0.700153,0.044854 -0.9863281,0.1171875 -0.5087552,0.128591 -0.9336994,0.3823282 -1.0625,0.8769532 -0.128801,0.4946245 0.1002438,0.9961722 0.4570312,1.4511722 0.2780976,0.354648 1.0056081,0.884802 1.5136719,1.269531 0.013677,-0.294802 0.048789,-0.583047 0.1035156,-0.865235 C 5.751879,11.066543 5.1825448,10.660671 5.0136719,10.445313 4.7343179,10.089062 4.6872945,9.8577481 4.7148438,9.7519531 4.7423928,9.6461586 4.8907222,9.4893549 5.2890625,9.3886719 5.6874019,9.2879889 6.2807146,9.2607121 7,9.3222656 c 1.4385712,0.123107 3.387144,0.5919496 5.46875,1.3769534 2.081606,0.785003 3.902899,1.740054 5.142578,2.626953 0.61984,0.443449 1.095646,0.872264 1.375,1.228516 0.279353,0.356249 0.326378,0.587564 0.298828,0.693359 -0.02755,0.105795 -0.175878,0.262598 -0.574218,0.363281 -0.242816,0.06137 -1.007389,0.03264 -1.585938,0.0098 -0.16587,0.271812 -0.352953,0.528429 -0.558594,0.769531 0.788474,0.05519 1.896167,0.100399 2.332032,-0.0098 0.508753,-0.128592 0.937605,-0.382329 1.066406,-0.876953 0.128801,-0.494625 -0.104151,-0.996172 -0.460938,-1.451172 C 19.147118,13.597735 18.628125,13.138305 17.970703,12.667969 16.655861,11.727283 14.793224,10.756063 12.664062,9.953125 10.534898,9.150188 8.5433721,8.6676809 7.0175781,8.5371094 6.8268541,8.5207894 6.6444818,8.5092212 6.46875,8.5039062 6.3369509,8.4999175 6.2090338,8.4994325 6.0859375,8.5019531 Z"/>
 <path style="fill:#59d4f1" d="M 6.0859375 8.0019531 C 5.7166486 8.009515 5.3857845 8.0468072 5.0996094 8.1191406 C 4.5908542 8.2477316 4.16591 8.5014688 4.0371094 8.9960938 C 3.9083084 9.4907183 4.1373532 9.9922661 4.4941406 10.447266 C 4.7722382 10.801914 5.4997487 11.332068 6.0078125 11.716797 C 6.0214896 11.421995 6.0566018 11.13375 6.1113281 10.851562 C 5.751879 10.566543 5.1825448 10.160671 5.0136719 9.9453125 C 4.7343179 9.589062 4.6872945 9.3577481 4.7148438 9.2519531 C 4.7423928 9.1461586 4.8907222 8.9893549 5.2890625 8.8886719 C 5.6874019 8.7879889 6.2807146 8.7607121 7 8.8222656 C 8.4385712 8.9453726 10.387144 9.4142152 12.46875 10.199219 C 14.550356 10.984222 16.371649 11.939273 17.611328 12.826172 C 18.231168 13.269621 18.706974 13.698436 18.986328 14.054688 C 19.265681 14.410937 19.312706 14.642252 19.285156 14.748047 C 19.257606 14.853842 19.109278 15.010645 18.710938 15.111328 C 18.468122 15.172698 17.703549 15.14397 17.125 15.121094 C 16.95913 15.392906 16.772047 15.649523 16.566406 15.890625 C 17.35488 15.94582 18.462573 15.991024 18.898438 15.880859 C 19.407191 15.752267 19.836043 15.49853 19.964844 15.003906 C 20.093645 14.509281 19.860693 14.007734 19.503906 13.552734 C 19.147118 13.097735 18.628125 12.638305 17.970703 12.167969 C 16.655861 11.227283 14.793224 10.256063 12.664062 9.453125 C 10.534898 8.650188 8.5433721 8.1676809 7.0175781 8.0371094 C 6.8268541 8.0207894 6.6444818 8.0092212 6.46875 8.0039062 C 6.3369509 7.9999175 6.2090338 7.9994325 6.0859375 8.0019531 z"/>
 <circle style="opacity:0.2" cx="12.5" cy="10.5" r="1"/>
 <circle style="fill:#ffffff" cx="12.5" cy="10" r="1"/>
</svg>
