<svg xmlns="http://www.w3.org/2000/svg" width="16" height="16" version="1.1">
 <circle style="fill:#4f4f4f" cx="8" cy="8" r="8"/>
 <path style="fill:#ffffff" d="M 6.270786,6 H 7.270393 L 6.399607,11 H 5.4 Z"/>
 <path style="fill:#ffffff" d="m 8.9788284,10 v 1 H 5.4000004 L 5.64,10 Z"/>
 <path style="fill:#6f6fee" d="M 8 3 A 5 5 0 0 0 3 8 A 5 5 0 0 0 8 13 A 5 5 0 0 0 13 8 A 5 5 0 0 0 8 3 z M 8 4 A 4.0000001 4.0000001 0 0 1 12 8 A 4.0000001 4.0000001 0 0 1 8 12 A 4.0000001 4.0000001 0 0 1 4 8 A 4.0000001 4.0000001 0 0 1 8 4 z"/>
 <path style="fill:#ffffff" d="M 8,7.3304688 V 11 H 9 V 7.3304688 C 8.8433906,7.3753512 8.674825,7.4 8.5,7.4 8.325175,7.4 8.1566094,7.375352 8,7.3304688 Z"/>
 <path style="fill:#ffffff" d="m 10.34358,6 h 0.99958 L 9.24,11 H 8.24042 Z"/>
 <path style="fill:#59d4f1" d="M 3.5644531 5.0019531 C 3.2874864 5.0076244 3.0408032 5.0355933 2.8261719 5.0898438 C 2.4446055 5.186288 2.1239441 5.3751204 2.0273438 5.7460938 C 1.9307428 6.1170665 2.1035029 6.4946837 2.3710938 6.8359375 C 2.5408113 7.0523749 2.7626959 7.2697752 3.0273438 7.4902344 C 3.0493821 7.2726184 3.0837732 7.0580708 3.1328125 6.8496094 C 2.9822517 6.7117295 2.8555085 6.578593 2.7617188 6.4589844 C 2.5522032 6.1917933 2.5164475 6.0188003 2.5371094 5.9394531 C 2.5577714 5.8601064 2.6680418 5.7415288 2.9667969 5.6660156 C 3.2655515 5.5905026 3.710536 5.5710215 4.25 5.6171875 C 5.3289283 5.7095195 6.7903586 6.0596776 8.3515625 6.6484375 C 9.9127664 7.2371965 11.279225 7.9539585 12.208984 8.6191406 C 12.673864 8.9517314 13.030718 9.273824 13.240234 9.5410156 C 13.44975 9.8082077 13.483553 9.9811995 13.462891 10.060547 C 13.442231 10.139897 13.331958 10.258473 13.033203 10.333984 C 12.862309 10.377175 12.641933 10.40159 12.384766 10.40625 C 12.273012 10.609478 12.147711 10.803518 12.009766 10.988281 C 12.462418 11.011122 12.855509 10.990613 13.173828 10.910156 C 13.555395 10.813706 13.876056 10.622925 13.972656 10.251953 C 14.069256 9.8809797 13.8965 9.5053164 13.628906 9.1640625 C 13.361315 8.8228159 12.971582 8.4777562 12.478516 8.125 C 11.492385 7.4194869 10.09492 6.6920542 8.4980469 6.0898438 C 6.9011749 5.4876337 5.4080174 5.1252736 4.2636719 5.0273438 C 4.1206289 5.0151036 3.9833613 5.0059394 3.8515625 5.0019531 C 3.7527131 4.9989614 3.6567754 5.0000627 3.5644531 5.0019531 z"/>
 <circle style="fill:#ffffff" cx="8.45" cy="6.25" r=".75"/>
</svg>
