<svg xmlns="http://www.w3.org/2000/svg" width="48" height="48" version="1.1">
 <circle style="opacity:0.2" cx="24" cy="25" r="20"/>
 <circle style="fill:#4f4f4f" cx="24" cy="24" r="20"/>
 <path style="opacity:0.2" d="M 19.177734,19 17,32 H 19 25.947266 26 26.599609 l 5.257813,-13 h -2 L 26,28.537109 V 22.826172 C 25.686781,22.938378 25.34965,23 25,23 24.65035,23 24.313219,22.938378 24,22.826172 V 30 h -4.664062 l 1.841796,-11 z"/>
 <path style="opacity:0.2" d="M 24,12 A 13,13 0 0 0 11,25 13,13 0 0 0 24,38 13,13 0 0 0 37,25 13,13 0 0 0 24,12 Z m 0,2 A 11,11 0 0 1 35,25 11,11 0 0 1 24,36 11,11 0 0 1 13,25 11,11 0 0 1 24,14 Z"/>
 <path style="fill:#ffffff" d="m 19.176965,18 h 2 L 19,31 h -2 z"/>
 <path style="opacity:0.1;fill:#ffffff" d="M 24,4 A 20,20 0 0 0 4,24 20,20 0 0 0 4.0215,24.582 20,20 0 0 1 24,5 20,20 0 0 1 43.979,24.418 20,20 0 0 0 44,24 20,20 0 0 0 24,4 Z"/>
 <path style="fill:#ffffff" transform="rotate(90)" d="m 29,-25.947071 h 2 v 8.94707 L 29,-17.6 Z"/>
 <path style="fill:#6f6fee" d="M 24 11 A 13 13 0 0 0 11 24 A 13 13 0 0 0 24 37 A 13 13 0 0 0 37 24 A 13 13 0 0 0 24 11 z M 24 13 A 11 11 0 0 1 35 24 A 11 11 0 0 1 24 35 A 11 11 0 0 1 13 24 A 11 11 0 0 1 24 13 z"/>
 <path style="fill:#ffffff" d="M 24 21.826172 L 24 31 L 26 31 L 26 21.826172 C 25.686781 21.938378 25.34965 22 25 22 C 24.65035 22 24.313219 21.938378 24 21.826172 z"/>
 <path style="fill:#ffffff" d="m 29.857899,18 h 2 L 26.6,31 h -2 z"/>
 <path style="opacity:0.2" d="m 12.589844,17.007812 c -1.087361,-0.03191 -2.033318,0.03758 -2.8203128,0.230469 -1.0493252,0.257182 -1.9296569,0.764657 -2.1953124,1.753907 -0.2656566,0.989249 0.2074728,1.994297 0.9433593,2.904296 0.6108665,0.755397 1.467085,1.517943 2.5117189,2.292969 C 11.065328,23.604184 11.13905,23.030537 11.25,22.46875 10.545728,21.903038 9.9733934,21.364462 9.5917969,20.892578 9.0156194,20.180077 8.9177885,19.717449 8.9746094,19.505859 9.0314304,19.29427 9.3385655,18.97871 10.160156,18.777344 c 0.821589,-0.201366 2.043793,-0.253967 3.527344,-0.13086 2.967103,0.246214 6.985914,1.181947 11.279297,2.751954 4.293384,1.570005 8.050542,3.478156 10.607422,5.251953 1.278442,0.886898 2.257807,1.744529 2.833984,2.457031 0.576176,0.7125 0.674009,1.17513 0.617188,1.386719 -0.05682,0.21159 -0.363957,0.527149 -1.185547,0.728515 -0.628279,0.153987 -1.494373,0.21928 -2.529297,0.1875 -0.30129,0.530516 -0.637404,1.038934 -1.007813,1.519532 1.561087,0.127738 2.882793,0.08766 3.925782,-0.167969 1.049325,-0.257183 1.931608,-0.766611 2.197265,-1.75586 0.265656,-0.98925 -0.211379,-1.992344 -0.947265,-2.902343 -0.735888,-0.909998 -1.808108,-1.82886 -3.164063,-2.769532 -2.711908,-1.881345 -6.553839,-3.823812 -10.945312,-5.429687 -4.391472,-1.605874 -8.499482,-2.570888 -11.646485,-2.832031 -0.393375,-0.03264 -0.770359,-0.05382 -1.132812,-0.06445 z"/>
 <path style="fill:#59d4f1" d="M 12.589844 16.007812 C 11.502483 15.975907 10.556526 16.045394 9.7695312 16.238281 C 8.720206 16.495463 7.8398743 17.002938 7.5742188 17.992188 C 7.3085622 18.981437 7.7816916 19.986485 8.5175781 20.896484 C 9.1284446 21.651881 9.9846631 22.414427 11.029297 23.189453 C 11.065328 22.604184 11.13905 22.030537 11.25 21.46875 C 10.545728 20.903038 9.9733934 20.364462 9.5917969 19.892578 C 9.0156194 19.180077 8.9177885 18.717449 8.9746094 18.505859 C 9.0314304 18.29427 9.3385655 17.97871 10.160156 17.777344 C 10.981745 17.575978 12.203949 17.523377 13.6875 17.646484 C 16.654603 17.892698 20.673414 18.828431 24.966797 20.398438 C 29.260181 21.968443 33.017339 23.876594 35.574219 25.650391 C 36.852661 26.537289 37.832026 27.39492 38.408203 28.107422 C 38.984379 28.819922 39.082212 29.282552 39.025391 29.494141 C 38.968571 29.705731 38.661434 30.02129 37.839844 30.222656 C 37.211565 30.376643 36.345471 30.441936 35.310547 30.410156 C 35.009257 30.940672 34.673143 31.44909 34.302734 31.929688 C 35.863821 32.057426 37.185527 32.017349 38.228516 31.761719 C 39.277841 31.504536 40.160124 30.995108 40.425781 30.005859 C 40.691437 29.016609 40.214402 28.013515 39.478516 27.103516 C 38.742628 26.193518 37.670408 25.274656 36.314453 24.333984 C 33.602545 22.452639 29.760614 20.510172 25.369141 18.904297 C 20.977669 17.298423 16.869659 16.333409 13.722656 16.072266 C 13.329281 16.039623 12.952297 16.018448 12.589844 16.007812 z"/>
 <circle style="opacity:0.2" cx="25" cy="20" r="2"/>
 <circle style="fill:#ffffff" cx="25" cy="19" r="2"/>
</svg>
